<?xml version="1.0" encoding="UTF-8" standalone="no"?>
<!-- Created with Inkscape (http://www.inkscape.org/) -->
<svg
   xmlns:svg="http://www.w3.org/2000/svg"
   xmlns="http://www.w3.org/2000/svg"
   version="1.0"
   width="475.27997pt"
   height="273.89001pt"
   id="svg2">
  <defs
     id="defs5" />
  <path
     d="M 378.91233,10.911792 L 11.54962,325.79411 L 578.33782,325.79411"
     style="fill:none;fill-opacity:0.75;fill-rule:evenodd;stroke:#000000;stroke-width:2.09921551px;stroke-linecap:butt;stroke-linejoin:miter;stroke-opacity:1"
     id="path1306" />
  <path
     d="M 11.9675,325.37622 C 484.50482,147.80785 484.50482,147.80785 484.50482,147.80785"
     style="fill:none;fill-opacity:0.75;fill-rule:evenodd;stroke:#ee1717;stroke-width:2.93501449px;stroke-linecap:butt;stroke-linejoin:miter;stroke-opacity:1"
     id="path1318" />
  <path
     d="M 277.83886,238.43448 A 107.5,107.5 0 0 1 304.97499,307.54339"
     transform="matrix(1.877295,0,0,1.877295,-356.8978,-253.6116)"
     style="opacity:1;fill:none;fill-opacity:1;fill-rule:evenodd;stroke:#000000;stroke-width:1;stroke-miterlimit:4;stroke-dasharray:none;stroke-opacity:1"
     id="path1308" />
  <path
     d="M 185.1125,283.26575 L 189.97682,283.26575 L 186.16742,296.59867 C 185.91344,297.43871 185.51295,298.75735 184.966,300.55459 C 185.70831,303.56305 186.26508,305.3603 186.63628,305.94637 C 187.33951,307.02082 188.22837,307.55804 189.30285,307.55804 C 190.08424,307.55804 190.80704,307.2357 191.47129,306.59103 C 192.13545,305.94637 192.575,304.9403 192.78993,303.57281 L 193.96205,303.57281 C 193.68851,306.38592 193.09269,308.32969 192.17456,309.40413 C 191.27589,310.47857 190.23076,311.0158 189.03913,311.01581 C 187.92558,311.0158 186.90974,310.54695 185.9916,309.60926 C 185.09294,308.67155 184.28222,306.65941 183.55944,303.57281 C 182.69986,305.27239 181.85983,306.56174 181.03938,307.44082 C 179.88676,308.65202 178.63651,309.55065 177.28858,310.13671 C 175.94061,310.7423 174.40708,311.04511 172.68799,311.04511 C 168.37065,311.04511 165.19616,309.60926 163.16447,306.73756 C 161.13279,303.86585 160.11695,300.59367 160.11695,296.92101 C 160.11695,292.62324 161.30861,289.14594 163.69193,286.48911 C 166.07525,283.81277 168.86881,282.4746 172.07262,282.47458 C 174.29964,282.4746 176.26295,283.15834 177.96254,284.5258 C 179.66211,285.87375 181.2054,288.39382 182.59244,292.08599 L 185.1125,283.26575 M 181.56684,295.36794 C 180.51189,291.34366 179.15418,288.54034 177.4937,286.95795 C 175.83317,285.35608 174.14336,284.55513 172.42426,284.5551 C 170.50978,284.55513 168.91764,285.61003 167.64786,287.71982 C 166.37805,289.81014 165.74315,293.15068 165.74315,297.7415 C 165.74315,300.45693 166.01664,302.59606 166.56365,304.15888 C 167.11062,305.70217 167.93111,306.90361 169.0251,307.76316 C 170.13861,308.60319 171.31073,309.02319 172.54148,309.02319 C 174.04568,309.02319 175.42293,308.32969 176.67321,306.94267 C 178.37278,305.06727 180.00398,301.20904 181.56684,295.36794"
     style="font-size:39.75840759px;font-style:normal;font-variant:normal;font-weight:normal;font-stretch:normal;text-align:start;line-height:125%;writing-mode:lr-tb;text-anchor:start;fill:#000000;fill-opacity:1;stroke:none;stroke-width:1px;stroke-linecap:butt;stroke-linejoin:miter;stroke-opacity:1;font-family:Symbol"
     id="text1324" />
  <path
     d="M 169.72625,219.42918 L 174.59056,219.42918 L 170.78115,232.76211 C 170.52717,233.60214 170.12669,234.92078 169.57973,236.71802 C 170.32204,239.72648 170.87881,241.52373 171.25001,242.1098 C 171.95325,243.18425 172.8421,243.72147 173.91658,243.72147 C 174.69797,243.72147 175.42078,243.39913 176.08502,242.75447 C 176.74918,242.1098 177.18873,241.10373 177.40366,239.73625 L 178.57578,239.73625 C 178.30224,242.54935 177.70642,244.49311 176.78829,245.56756 C 175.88962,246.64201 174.84449,247.17923 173.65286,247.17923 C 172.53931,247.17923 171.52347,246.71038 170.60533,245.77269 C 169.70667,244.83498 168.89595,242.82285 168.17317,239.73625 C 167.3136,241.43582 166.47356,242.72517 165.65311,243.60425 C 164.50049,244.81545 163.25024,245.71408 161.90231,246.30015 C 160.55434,246.90573 159.02081,247.20854 157.30172,247.20854 C 152.98438,247.20854 149.80989,245.77269 147.7782,242.90097 C 145.74652,240.02929 144.73068,236.7571 144.73068,233.08443 C 144.73068,228.78666 145.92234,225.30937 148.30566,222.65252 C 150.68898,219.9762 153.48254,218.63803 156.68635,218.638 C 158.91337,218.63803 160.87668,219.32177 162.57628,220.68922 C 164.27584,222.03719 165.81913,224.55725 167.20617,228.24942 L 169.72625,219.42918 M 166.18057,231.53137 C 165.12562,227.5071 163.76792,224.70377 162.10743,223.12139 C 160.4469,221.5195 158.75709,220.71854 157.03799,220.71853 C 155.12351,220.71854 153.53137,221.77346 152.26159,223.88326 C 150.99178,225.97357 150.35688,229.31412 150.35688,233.90493 C 150.35688,236.62036 150.63037,238.75947 151.17738,240.3223 C 151.72435,241.86561 152.54484,243.06703 153.63883,243.92659 C 154.75234,244.76661 155.92446,245.18662 157.15521,245.18662 C 158.65941,245.18662 160.03666,244.49311 161.28695,243.10611 C 162.98651,241.23071 164.61771,237.37247 166.18057,231.53137"
     style="font-size:39.75840759px;font-style:normal;font-variant:normal;font-weight:normal;font-stretch:normal;text-align:start;line-height:125%;writing-mode:lr-tb;text-anchor:start;fill:#000000;fill-opacity:1;stroke:none;stroke-width:1px;stroke-linecap:butt;stroke-linejoin:miter;stroke-opacity:1;font-family:Symbol"
     id="text1328" />
</svg>
