<?xml version="1.0"?>
<svg xmlns:rdf="http://www.w3.org/1999/02/22-rdf-syntax-ns#" xmlns="http://www.w3.org/2000/svg" xmlns:cc="http://creativecommons.org/ns#" xmlns:xlink="http://www.w3.org/1999/xlink" xmlns:dc="http://purl.org/dc/elements/1.1/" id="svg2" viewBox="0 0 1052.4 744.09" version="1.1">
 <defs id="defs4">
  <linearGradient id="linearGradient5729">
   <stop id="stop5731" stop-color="#22221e" offset="0"/>
   <stop id="stop5733" stop-color="#22221e" stop-opacity="0" offset="1"/>
  </linearGradient>
  <linearGradient id="linearGradient5681">
   <stop id="stop5683" stop-color="#2e3436" offset="0"/>
   <stop id="stop5685" stop-color="#2e3436" stop-opacity="0" offset="1"/>
  </linearGradient>
  <linearGradient id="linearGradient5621">
   <stop id="stop5623" offset="0"/>
   <stop id="stop5625" stop-opacity="0" offset="1"/>
  </linearGradient>
  <linearGradient id="linearGradient4932">
   <stop id="stop4934" stop-color="#fff" offset="0"/>
   <stop id="stop4936" stop-color="#fff" stop-opacity="0" offset="1"/>
  </linearGradient>
  <linearGradient id="linearGradient3800">
   <stop id="stop3802" stop-color="#c00" offset="0"/>
   <stop id="stop3804" stop-color="#c00" stop-opacity="0" offset="1"/>
  </linearGradient>
  <linearGradient id="linearGradient7178" y2="-3.3521" gradientUnits="userSpaceOnUse" x2="-921.49" y1="-3.3521" x1="-1141.4">
   <stop id="stop9605" stop-color="#48464a" offset="0"/>
   <stop id="stop9607" stop-color="#48464a" stop-opacity="0" offset="1"/>
  </linearGradient>
  <linearGradient id="linearGradient7184" y2="-107.42" xlink:href="#linearGradient5621" gradientUnits="userSpaceOnUse" x2="-125.27" y1="-107.42" x1="-247.39"/>
  <radialGradient id="radialGradient7190" xlink:href="#linearGradient3800" gradientUnits="userSpaceOnUse" cy="347.56" cx="-624.78" gradientTransform="matrix(1 0 0 .37209 0 218.24)" r="530.07"/>
  <radialGradient id="radialGradient7198" gradientUnits="userSpaceOnUse" cy="-3.3521" cx="-1031.4" gradientTransform="matrix(1.4164 -.0023850 .0014597 .88504 429.51 -2.8453)" r="109.94">
   <stop id="stop5519" stop-color="#fff" offset="0"/>
   <stop id="stop5521" stop-color="#fff" stop-opacity="0" offset="1"/>
  </radialGradient>
  <radialGradient id="radialGradient7202" xlink:href="#linearGradient5621" gradientUnits="userSpaceOnUse" cy="930.05" cx="-629.73" gradientTransform="matrix(1 0 0 .28445 0 665.5)" r="200.92"/>
  <linearGradient id="linearGradient7210" y2="345.52" xlink:href="#linearGradient5621" gradientUnits="userSpaceOnUse" x2="-478.41" y1="345.52" x1="-589.1"/>
  <radialGradient id="radialGradient7250" xlink:href="#linearGradient4932" gradientUnits="userSpaceOnUse" cy="224.04" cx="-187.71" r="38.021"/>
  <linearGradient id="linearGradient7252" y2="224.04" xlink:href="#linearGradient5621" gradientUnits="userSpaceOnUse" x2="-149.68" y1="224.04" x1="-225.73"/>
  <linearGradient id="linearGradient7258" y2="372.72" gradientUnits="userSpaceOnUse" x2="-157.43" y1="372.72" x1="-224.65">
   <stop id="stop4952" stop-color="#eeeeec" offset="0"/>
   <stop id="stop4954" stop-color="#eeeeec" stop-opacity="0" offset="1"/>
  </linearGradient>
  <linearGradient id="linearGradient7272" y2="100.82" xlink:href="#linearGradient5621" gradientUnits="userSpaceOnUse" x2="-1254.8" y1="100.82" x1="-1328"/>
  <radialGradient id="radialGradient7296" xlink:href="#linearGradient5681" gradientUnits="userSpaceOnUse" cy="930.05" cx="-629.73" gradientTransform="matrix(1 0 0 .28445 0 665.5)" r="200.92"/>
  <linearGradient id="linearGradient7298" y2="930.05" xlink:href="#linearGradient5729" gradientUnits="userSpaceOnUse" x2="-425.38" y1="930.05" x1="-834.08"/>
  <linearGradient id="linearGradient7565" y2="-3.3521" gradientUnits="userSpaceOnUse" x2="-921.49" y1="-3.3521" x1="-1141.4">
   <stop id="stop7561" stop-color="#7f7f7b" offset="0"/>
   <stop id="stop7563" stop-color="#7f7f7b" stop-opacity="0" offset="1"/>
  </linearGradient>
  <linearGradient id="linearGradient7855" y2="345.52" xlink:href="#linearGradient5621" gradientUnits="userSpaceOnUse" x2="-478.41" gradientTransform="matrix(.62659 0 0 .62518 721.34 134.78)" y1="345.52" x1="-589.1"/>
  <radialGradient id="radialGradient7858" gradientUnits="userSpaceOnUse" cy="705.06" cx="271.59" gradientTransform="matrix(-1.3536 .032250 -.0022490 -.18126 640.79 824.1)" r="57.684">
   <stop id="stop5462" stop-color="#fff" offset="0"/>
   <stop id="stop5464" stop-color="#fff" stop-opacity="0" offset="1"/>
  </radialGradient>
  <radialGradient id="radialGradient7860" xlink:href="#linearGradient5621" gradientUnits="userSpaceOnUse" cy="705.06" cx="271.59" gradientTransform="matrix(1 0 0 .32278 0 477.48)" r="57.684"/>
  <linearGradient id="linearGradient7863" y2="853.72" gradientUnits="userSpaceOnUse" x2="444.78" y1="853.72" x1="214.95">
   <stop id="stop4978" stop-color="#eeeeec" offset="0"/>
   <stop id="stop4980" stop-color="#eeeeec" stop-opacity="0" offset="1"/>
  </linearGradient>
  <radialGradient id="radialGradient7866" gradientUnits="userSpaceOnUse" cy="813.73" cx="310.78" gradientTransform="matrix(1 0 0 .13697 0 702.27)" r="134">
   <stop id="stop4966" stop-color="#eeeeec" offset="0"/>
   <stop id="stop4968" stop-color="#eeeeec" stop-opacity="0" offset="1"/>
  </radialGradient>
  <linearGradient id="linearGradient7908" y2="1007.3" gradientUnits="userSpaceOnUse" x2="328.16" y1="1007.3" x1="317.78">
   <stop id="stop8991" stop-color="#ad0000" offset="0"/>
   <stop id="stop8993" stop-color="#ad0000" stop-opacity="0" offset="1"/>
  </linearGradient>
  <linearGradient id="linearGradient7911" y2="1007.1" gradientUnits="userSpaceOnUse" x2="341.2" gradientTransform="translate(-1.6862 -1.0755)" y1="1007.1" x1="305.22">
   <stop id="stop8977" offset="0"/>
   <stop id="stop8979" stop-opacity="0" offset="1"/>
  </linearGradient>
  <radialGradient id="radialGradient7917" gradientUnits="userSpaceOnUse" cy="942.2" cx="332.57" gradientTransform="matrix(1 0 0 16.178 0 -14300)" r="11.619">
   <stop id="stop5480" stop-color="#fff" offset="0"/>
   <stop id="stop5482" stop-color="#fff" stop-opacity="0" offset="1"/>
  </radialGradient>
  <linearGradient id="linearGradient7919" y2="938.66" xlink:href="#linearGradient5621" gradientUnits="userSpaceOnUse" x2="332.24" gradientTransform="matrix(.97454 0 0 .98963 20.41 13.276)" y1="938.66" x1="308.4"/>
  <linearGradient id="linearGradient7923" y2="705.06" xlink:href="#linearGradient5621" gradientUnits="userSpaceOnUse" x2="329.27" y1="705.06" x1="213.9"/>
  <linearGradient id="linearGradient7984" y2="550.94" gradientUnits="userSpaceOnUse" x2="793.31" y1="549.6" x1="759.02">
   <stop id="stop5505" stop-color="#2e3436" offset="0"/>
   <stop id="stop5507" stop-color="#2e3436" stop-opacity="0" offset="1"/>
  </linearGradient>
  <linearGradient id="linearGradient8042" y2="665.93" gradientUnits="userSpaceOnUse" x2="559.86" y1="665.93" x1="490.11">
   <stop id="stop6927" stop-color="#22221e" offset="0"/>
   <stop id="stop6929" stop-color="#22221e" stop-opacity="0" offset="1"/>
  </linearGradient>
  <linearGradient id="linearGradient8065" y2="664.55" gradientUnits="userSpaceOnUse" x2="670.65" y1="664.55" x1="600.51">
   <stop id="stop6898" stop-color="#22221e" offset="0"/>
   <stop id="stop6900" stop-color="#22221e" stop-opacity="0" offset="1"/>
  </linearGradient>
  <linearGradient id="linearGradient8070" y2="611.98" gradientUnits="userSpaceOnUse" x2="759.94" y1="611.98" x1="734.4">
   <stop id="stop9625" offset="0"/>
   <stop id="stop9627" stop-opacity="0" offset="1"/>
  </linearGradient>
 </defs>
 <g id="layer1" transform="translate(0 -308.27)">
  <g id="g8085">
   <g id="g7738" transform="matrix(.62719 0 0 .62488 567.21 282.71)">
    <rect id="rect7732" transform="rotate(-24.855)" fill-rule="evenodd" rx="0" ry="0" height="19.89" width="57.46" y="775.36" x="-147.08" fill="#555753"/>
    <path id="path7734" d="m227.71 760.93-7.347 54.286-69.796 25.714 18.367-31.429 36.735-5.7143 22.041-42.857" fill="#888a85"/>
   </g>
   <rect id="rect7579" ry="33.85" fill-rule="evenodd" rx="17.691" transform="matrix(.98906 .14751 -.10402 .99457 0 0)" height="256.53" width="23.54" stroke="url(#linearGradient8070)" y="483.71" x="735.4" stroke-width="2.001" fill="#2e3436"/>
   <path id="path6961" d="m780.53 521.38c-18.136-0.11602-35.659 5.8925-44.361 14.848-10.116 9.9588-8.779 23.194 3.384 32.403 9.326 7.3254 24.977 11.955 40.977 11.875 8.0734-19.708 8.0734-39.417 0-59.125z" fill-rule="evenodd" fill="#eeeeec"/>
   <path id="path6404" d="m-922.86-3.3521a108.57 70 0 1 1 -217.14 0 108.57 70 0 1 1 217.14 0z" fill-rule="evenodd" transform="matrix(.73447 0 0 .72690 1185.9 781.17)" stroke="url(#linearGradient7178)" stroke-width="2.7372" fill="#babdb6"/>
   <path id="rect4075" d="m610.71 640.06c17.795 4.004 35.172 6.6084 59.443 32.293-3.2325 5.5614-6.465 11.123-9.6975 16.684-19.814-10.764-39.628-21.529-59.443-32.293 3.2325-5.5614 6.465-11.123 9.6975-16.684z" fill-rule="evenodd" stroke="url(#linearGradient8065)" fill="#babdb6"/>
   <g id="g4054" fill-rule="evenodd" transform="matrix(.25136 .13655 -.14125 .24301 587.88 612.41)">
    <path id="rect3871" d="m108.57 100.93h250.98l-50.196 228.57h-134.9z" fill="#555753"/>
    <g id="g4035" fill="#888a85" transform="matrix(1.4176 0 0 1.4176 624.69 -417.21)">
     <path id="use4001" d="m-367.03 349.1h186.83v9.8444h-186.83z"/>
     <path id="use4003" d="m-365.64 360.34h184.06v9.534h-184.06z"/>
     <path id="use4005" d="m-364.26 371.58h181.29v9.2235h-181.29z"/>
     <path id="use4007" d="m-362.87 382.82h178.52v8.9131h-178.52z"/>
     <path id="use4009" d="m-361.49 394.06h175.75v8.6027h-175.75z"/>
     <path id="use4011" d="m-360.1 405.3h172.98v8.2923h-172.98z"/>
     <path id="use4013" d="m-358.72 416.55h170.21v7.9819h-170.21z"/>
     <path id="use4015" d="m-357.33 427.79h167.44v7.6715h-167.44z"/>
     <path id="use4017" d="m-355.95 439.03h164.66v7.3611h-164.66z"/>
     <path id="use4019" d="m-354.56 450.27h161.89v7.0507h-161.89z"/>
     <path id="use4021" d="m-353.18 461.51h159.12v6.7403h-159.12z"/>
     <path id="use4023" d="m-351.79 472.75h156.35v6.4299h-156.35z"/>
     <path id="use4025" d="m-350.41 483.99h153.58v6.1195h-153.58z"/>
     <path id="use4027" d="m-349.02 495.23h150.81v5.8091h-150.81z"/>
     <path id="use4029" d="m-347.63 506.47h148.04v5.4986h-148.04z"/>
     <path id="use4031" d="m-346.25 517.72h145.27v5.1882h-145.27z"/>
     <path id="use4033" d="m-344.86 528.96h142.5v4.8778h-142.5z"/>
    </g>
   </g>
   <path id="path4147" d="m490.61 674.51c12.484-12.897 23.506-26.144 58.649-33.622 3.3656 5.4871 6.7312 10.974 10.097 16.461-19.55 11.207-39.099 22.415-58.649 33.622-3.3656-5.4871-6.7312-10.974-10.097-16.461z" fill-rule="evenodd" stroke="url(#linearGradient8042)" fill="#babdb6"/>
   <g id="g4149" fill-rule="evenodd" transform="matrix(0.248 -.14217 .14706 .23976 454.43 679.79)">
    <path id="path4151" d="m108.57 100.93h250.98l-50.196 228.57h-134.9z" fill="#555753"/>
    <g id="g4153" fill="#888a85" transform="matrix(1.4176 0 0 1.4176 624.69 -417.21)">
     <path id="use4155" d="m-367.03 349.1h186.83v9.8444h-186.83z"/>
     <path id="use4157" d="m-365.64 360.34h184.06v9.534h-184.06z"/>
     <path id="use4159" d="m-364.26 371.58h181.29v9.2235h-181.29z"/>
     <path id="use4161" d="m-362.87 382.82h178.52v8.9131h-178.52z"/>
     <path id="use4163" d="m-361.49 394.06h175.75v8.6027h-175.75z"/>
     <path id="use4165" d="m-360.1 405.3h172.98v8.2923h-172.98z"/>
     <path id="use4167" d="m-358.72 416.55h170.21v7.9819h-170.21z"/>
     <path id="use4169" d="m-357.33 427.79h167.44v7.6715h-167.44z"/>
     <path id="use4171" d="m-355.95 439.03h164.66v7.3611h-164.66z"/>
     <path id="use4173" d="m-354.56 450.27h161.89v7.0507h-161.89z"/>
     <path id="use4175" d="m-353.18 461.51h159.12v6.7403h-159.12z"/>
     <path id="use4177" d="m-351.79 472.75h156.35v6.4299h-156.35z"/>
     <path id="use4179" d="m-350.41 483.99h153.58v6.1195h-153.58z"/>
     <path id="use4181" d="m-349.02 495.23h150.81v5.8091h-150.81z"/>
     <path id="use4183" d="m-347.63 506.47h148.04v5.4986h-148.04z"/>
     <path id="use4185" d="m-346.25 517.72h145.27v5.1882h-145.27z"/>
     <path id="use4187" d="m-344.86 528.96h142.5v4.8778h-142.5z"/>
    </g>
   </g>
   <g id="g3840" fill-rule="evenodd" transform="matrix(.38439 .019454 -.020123 .37162 715 591.42)" stroke="url(#linearGradient7184)" fill="#d3d7cf">
    <path id="path3836" d="m-88.571 150.93c0 19.724-30.061 35.714-67.143 35.714s-67.143-15.99-67.143-35.714 30.061-35.714 67.143-35.714 67.143 15.99 67.143 35.714z" transform="matrix(.83240 .26094 -.17948 .57253 -26.152 -175.7)" stroke-width="3.6522"/>
    <rect id="rect3838" transform="rotate(19.613)" height="48.571" width="91.429" y="-49.506" x="-261.56" stroke-width="2.6422"/>
   </g>
   <g id="g3827" fill-rule="evenodd" transform="matrix(.32826 -.014330 .016491 .28524 829.64 529.64)">
    <path id="path3816" d="m-1304.2 264.43c472.25-604.48 1215.1-100.72 645.47 77.775-222.47 17.355-419.67 28.753-645.47-77.775z" fill="#2e3436"/>
    <g id="g3810" transform="matrix(.44933 0 0 .35318 -556.86 142.35)" stroke="#af0000" stroke-width="7">
     <path id="path2989" d="m-789.96 153.83c-95.145 0.12192-214.44 47.671-361.38 105.69-0.031 1.4756-0.011 2.9323 0.031 4.4062 148.5-58.633 418.09-103.89 477.34-2.9688-5.964 87.266-321.44 102.16-390.72 86.031-46.696-13.262-79.094-41.139-85.5-71.125 8.8552 55.311 67.605 107.35 153.41 131.72 44.534 10.368 114.92 13.384 187.25 5.7188 293.89-31.883 281.31-147.73 462.62-104.84-60.337 92.065-267.11 172.27-361.09 172.25-44.355 3.5688-271.06-16.534-319.34-40.219 218.19 197.41 569.98 86.953 929.13-175.9-218.28-17.789-486.25-106.53-691.75-110.75zm-237.38 286.66c-2.9341-2.2332-5.8035-4.5054-8.5937-6.8438 1.1099 2.3646 4.0969 4.6382 8.5937 6.8438z" fill="#edd400"/>
     <path id="path3766" d="m-789.96 153.83c-95.145 0.12192-214.44 47.671-361.38 105.69-0.031 1.4756-0.011 2.9323 0.031 4.4062 148.5-58.633 418.09-103.89 477.34-2.9688-5.964 87.266-321.44 102.16-390.72 86.031-46.696-13.262-79.094-41.139-85.5-71.125 8.8552 55.311 67.605 107.35 153.41 131.72 44.534 10.368 114.92 13.384 187.25 5.7188 293.89-31.883 281.31-147.73 462.62-104.84-60.337 92.065-267.11 172.27-361.09 172.25-44.355 3.5688-271.06-16.534-319.34-40.219 218.19 197.41 569.98 86.953 929.13-175.9-218.28-17.789-486.25-106.53-691.75-110.75zm-237.38 286.66c-2.9341-2.2332-5.8035-4.5054-8.5937-6.8438 1.1099 2.3646 4.0969 4.6382 8.5937 6.8438z" fill="url(#radialGradient7190)"/>
    </g>
    <g id="g3819" transform="matrix(.44559 -.057850 -.045471 -.35024 -597.68 190.69)" stroke="#af0000" stroke-width="7">
     <path id="path3821" d="m-789.96 153.83c-95.145 0.12192-214.44 47.671-361.38 105.69-0.031 1.4756-0.011 2.9323 0.031 4.4062 148.5-58.633 418.09-103.89 477.34-2.9688-5.964 87.266-321.44 102.16-390.72 86.031-46.696-13.262-79.094-41.139-85.5-71.125 8.8552 55.311 67.605 107.35 153.41 131.72 44.534 10.368 114.92 13.384 187.25 5.7188 293.89-31.883 281.31-147.73 462.62-104.84-60.337 92.065-267.11 172.27-361.09 172.25-44.355 3.5688-271.06-16.534-319.34-40.219 218.19 197.41 569.98 86.953 929.13-175.9-218.28-17.789-486.25-106.53-691.75-110.75zm-237.38 286.66c-2.9341-2.2332-5.8035-4.5054-8.5937-6.8438 1.1099 2.3646 4.0969 4.6382 8.5937 6.8438z" fill="#edd400"/>
     <path id="path3823" d="m-789.96 153.83c-95.145 0.12192-214.44 47.671-361.38 105.69-0.031 1.4756-0.011 2.9323 0.031 4.4062 148.5-58.633 418.09-103.89 477.34-2.9688-5.964 87.266-321.44 102.16-390.72 86.031-46.696-13.262-79.094-41.139-85.5-71.125 8.8552 55.311 67.605 107.35 153.41 131.72 44.534 10.368 114.92 13.384 187.25 5.7188 293.89-31.883 281.31-147.73 462.62-104.84-60.337 92.065-267.11 172.27-361.09 172.25-44.355 3.5688-271.06-16.534-319.34-40.219 218.19 197.41 569.98 86.953 929.13-175.9-218.28-17.789-486.25-106.53-691.75-110.75zm-237.38 286.66c-2.9341-2.2332-5.8035-4.5054-8.5937-6.8438 1.1099 2.3646 4.0969 4.6382 8.5937 6.8438z" fill="url(#radialGradient7190)"/>
    </g>
   </g>
   <path id="path3849" d="m680.08 570.39-33.644-0.31528c0.30669 5.902 0.61338 11.804 0.92006 17.706 35.45-5.6686 25.178-14.207 32.724-17.391z" fill-rule="evenodd" fill="#f57900"/>
   <path id="path3846" d="m600.41 574.26 33.442-3.5735c0.30668 5.902 0.61337 11.804 0.92007 17.706-35.859-2.2052-26.524-11.696-34.362-14.133z" fill-rule="evenodd" fill="#f57900"/>
   <path id="path3844" d="m-177.14 468.08a44.286 44.286 0 1 1 -88.571 0 44.286 44.286 0 1 1 88.571 0z" fill-rule="evenodd" transform="matrix(.28522 -.013853 .014329 .27575 697.77 447.48)" fill="#fce94f"/>
   <g id="g4544" transform="matrix(.61435 -.12579 .12625 .61209 1389 204.03)">
    <g id="g4522" transform="translate(155.5 358.52)" stroke="#000" fill="none">
     <path id="path4485" d="m-1111 160.5c-11.083 60.019-22.165 120.04-33.248 180.06-11.315-59.604-22.63-119.21-33.946-178.81"/>
     <path id="path4488" d="m-1045.1 183.97c-30.942 52.609-61.884 105.22-92.825 157.83l29.259-179.64"/>
     <path id="path4490" d="m-991.25 228.56c-47.069 38.853-94.138 77.706-141.21 116.56 29.645-52.933 59.29-105.87 88.935-158.8"/>
     <path id="path4492" d="m-955.85 288.9l-172.56 61.235c45.961-39.602 91.923-79.203 137.88-118.8"/>
     <path id="path4494" d="m-943.23 357.7c-61.031-0.49216-122.06-0.98413-183.09-1.4762 56.734-21.494 113.47-42.987 170.2-64.481"/>
     <path id="path4496" d="m-954.9 426.67c-57.182-21.336-114.36-42.673-171.55-64.009 60.664-0.79315 121.33-1.5862 181.99-2.3793"/>
     <path id="path4498" d="m-989.45 487.5c-46.436-39.607-92.873-79.214-139.31-118.82 57.277 20.003 114.55 40.006 171.83 60.009"/>
     <path id="path4500" d="m-1042.7 532.83c-30.089-53.101-60.179-106.2-90.268-159.3 46.981 38.386 93.962 76.773 140.94 115.16"/>
     <path id="path4502" d="m-1108.3 557.21c-10.113-60.189-20.227-120.38-30.34-180.57l93.056 156.42"/>
     <path id="path4504" d="m-1178.2 557.7c11.083-60.019 22.165-120.04 33.248-180.06 11.315 59.604 22.63 119.21 33.946 178.81"/>
     <path id="path4506" d="m-1244.1 534.23c30.942-52.608 61.884-105.22 92.825-157.83l-29.259 179.64"/>
     <path id="path4508" d="m-1298 489.64c47.069-38.853 94.138-77.706 141.21-116.56-29.645 52.933-59.29 105.87-88.935 158.8"/>
     <path id="path4510" d="m-1333.4 429.3l172.56-61.235c-45.961 39.602-91.923 79.203-137.88 118.8"/>
     <path id="path4512" d="m-1346.1 360.5c61.031 0.49222 122.06 0.98413 183.09 1.4761-56.734 21.494-113.47 42.987-170.2 64.481"/>
     <path id="path4514" d="m-1334.4 291.53c57.182 21.336 114.36 42.673 171.55 64.009-60.664 0.79323-121.33 1.5863-181.99 2.3794"/>
     <path id="path4516" d="m-1299.8 230.7c46.436 39.607 92.873 79.214 139.31 118.82-57.277-20.003-114.55-40.006-171.83-60.009"/>
     <path id="path4518" d="m-1246.6 185.37c30.089 53.101 60.179 106.2 90.269 159.3-46.981-38.386-93.962-76.773-140.94-115.16"/>
     <path id="path4520" d="m-1181 160.99c10.113 60.189 20.227 120.38 30.34 180.57l-93.056-156.42"/>
    </g>
    <path id="path4476" d="m-989.15 491.9c-124.66 0-225.72 101.06-225.72 225.72s101.06 225.72 225.72 225.72 225.72-101.06 225.72-225.72-101.06-225.72-225.72-225.72zm0 57.156c93.099 0 168.56 75.463 168.56 168.56 0 93.099-75.463 168.56-168.56 168.56-93.099 0-168.56-75.463-168.56-168.56 0-93.099 75.463-168.56 168.56-168.56z" fill-rule="evenodd" fill="#2e3436"/>
   </g>
   <path id="path5489" d="m780.53 521.38c-18.136-0.11602-35.659 5.8925-44.361 14.848-10.116 9.9588-8.779 23.194 3.384 32.403 9.326 7.3254 24.977 11.955 40.977 11.875 8.0734-19.708 8.0734-39.417 0-59.125z" fill-rule="evenodd" fill="url(#linearGradient7984)"/>
   <rect id="rect4474" fill-rule="evenodd" transform="matrix(.83295 -.55334 .52563 .85072 0 0)" height="374.97" width="22.257" stroke="url(#linearGradient7919)" y="754.71" x="321.44" stroke-width=".98206" fill="#babdb6"/>
   <path id="path4637" d="m863.78 715.35c-26.227 0-47.49 21.185-47.49 47.315 0 26.131 21.263 47.315 47.49 47.315s47.49-21.185 47.49-47.315c0-26.131-21.263-47.315-47.49-47.315zm4.6542 11.131c2.5713 0 4.4612 2.0753 4.2163 4.6372-0.24486 2.5618-2.5311 4.6372-5.1023 4.6372-2.5713 0-4.451-2.0753-4.2062-4.6372 0.24492-2.5618 2.5209-4.6372 5.0922-4.6372zm-12.007 0.28412c1.9297-0.0748 3.6684 1.1624 4.1959 3.1861 0.64932 2.4908-0.78166 5.2221-3.1979 6.0983-2.4162 0.87619-4.9011-0.43154-5.5505-2.9223-0.64933-2.4908 0.78172-5.2221 3.1979-6.0983 0.45308-0.16429 0.90916-0.24656 1.3545-0.26382zm22.894 3.4702c0.62505-0.0231 1.2597 0.0651 1.8637 0.28412 2.4162 0.87619 3.4724 3.47 2.3628 5.7939s-3.9592 3.5043-6.3754 2.6281-3.4825-3.47-2.373-5.7939c0.83215-1.7429 2.6467-2.8428 4.5219-2.9122zm-33.751 0.8422c1.2792 0.0412 2.5264 0.68507 3.3506 1.8772 1.4652 2.1193 1.0532 5.172-0.91657 6.8187-1.9697 1.6467-4.7574 1.267-6.2226-0.85234s-1.0532-5.172 0.91657-6.8187c0.86175-0.72044 1.877-1.0569 2.872-1.0248zm42.713 6.4332c1.2484-0.0521 2.5084 0.32326 3.4932 1.1466 1.9697 1.6467 2.0746 4.4449 0.23425 6.2505s-4.9251 1.941-6.8948 0.29426-2.0746-4.4449-0.23426-6.2505c0.92021-0.90282 2.1532-1.3888 3.4016-1.4409zm-51.859 1.4307c0.85905-0.002 1.7366 0.26232 2.5257 0.82189 2.1043 1.4922 2.7726 4.5088 1.4869 6.7274-1.2856 2.2186-4.0368 2.8012-6.1412 1.309-2.1043-1.4922-2.7623-4.4987-1.4767-6.7173 0.80355-1.3866 2.1734-2.1378 3.6053-2.141zm57.776 8.4625c1.8801-0.0853 3.7715 0.85249 4.7358 2.5164 1.2856 2.2186 0.42435 4.8866-1.9249 5.9562s-5.2934 0.13849-6.5791-2.0801c-1.2856-2.2186-0.42436-4.8866 1.9249-5.9562 0.5873-0.2674 1.2167-0.40789 1.8434-0.43632zm-63.652 1.999c0.44712-0.0169 0.90811 0.0339 1.3749 0.16235 2.4897 0.68513 4.1434 3.2811 3.6969 5.804-0.44649 2.5229-2.8265 4.0133-5.3162 3.3282-2.4897-0.68513-4.1434-3.2811-3.6969-5.804 0.36282-2.0499 2.0039-3.4172 3.9414-3.4905zm66.27 9.325c2.3922 0.0471 4.5616 1.8458 4.9802 4.211 0.4465 2.5229-1.2749 4.737-3.8497 4.9416-2.5747 0.20458-5.0225-1.6779-5.469-4.2008s1.275-4.737 3.8497-4.9416c0.16094-0.0128 0.32934-0.0133 0.48883-0.0102zm-67.655 2.415c2.3922 0.0471 4.5717 1.8559 4.9903 4.2211 0.4465 2.5229-1.2749 4.7268-3.8497 4.9314-2.5748 0.20458-5.0225-1.6678-5.469-4.1907-0.44656-2.5229 1.2749-4.737 3.8497-4.9416 0.16094-0.0128 0.31918-0.0234 0.47867-0.0203zm65.781 9.0308c0.44712-0.0169 0.91826 0.0339 1.3851 0.16235 2.4897 0.68514 4.1434 3.2913 3.6969 5.8142-0.44649 2.5229-2.8265 4.0133-5.3162 3.3282-2.4897-0.68514-4.1434-3.2913-3.6969-5.8142 0.36283-2.0499 1.9938-3.4172 3.9312-3.4906zm-63.489 2.557c1.8801-0.0853 3.7817 0.85249 4.7459 2.5164 1.2857 2.2186 0.42442 4.8866-1.9248 5.9562s-5.2935 0.13849-6.5791-2.0801-0.42441-4.8866 1.9248-5.9562c0.5873-0.26741 1.2065-0.40789 1.8332-0.43632zm58.356 7.6812c0.85912-0.002 1.7366 0.26233 2.5257 0.82191 2.1043 1.4922 2.7624 4.4987 1.4767 6.7173-1.2856 2.2186-4.0266 2.8113-6.131 1.3191-2.1043-1.4922-2.7725-4.4987-1.4869-6.7173 0.80355-1.3866 2.1836-2.1378 3.6155-2.141zm-51.787 2.2729c1.2485-0.0521 2.5084 0.33339 3.4933 1.1568 1.9697 1.6467 2.0746 4.4449 0.2342 6.2505s-4.9251 1.9308-6.8948 0.28412-2.0746-4.4449-0.23425-6.2505c0.92021-0.90282 2.1531-1.3888 3.4015-1.4409zm43.314 5.5504c1.3358-0.009 2.6551 0.63541 3.5136 1.8772 1.4652 2.1193 1.0532 5.172-0.91657 6.8188-1.9697 1.6467-4.7574 1.267-6.2227-0.85234-1.4652-2.1193-1.0531-5.172 0.91663-6.8187 0.73864-0.61752 1.589-0.95259 2.4442-1.0147 0.0891-0.006 0.17573-0.01 0.26479-0.0102zm-33.731 1.5829c0.62506-0.0231 1.2495 0.0651 1.8536 0.28411 2.4162 0.8762 3.4824 3.47 2.3729 5.7939s-3.9693 3.4941-6.3856 2.6179c-2.4162-0.87619-3.4724-3.47-2.3628-5.7939 0.83215-1.7429 2.6467-2.8327 4.5219-2.902zm22.956 2.902c1.9298-0.0748 3.6684 1.1624 4.196 3.1861 0.64932 2.4908-0.78173 5.2221-3.1979 6.0983-2.4162 0.87619-4.9012-0.43154-5.5505-2.9223-0.64926-2.4908 0.78172-5.2221 3.1979-6.0983 0.45308-0.16429 0.90923-0.24656 1.3545-0.26382zm-11.478 0.55808c2.5713 0 4.4511 2.0753 4.2062 4.6372-0.24486 2.5618-2.5208 4.6372-5.0922 4.6372-2.5713 0-4.4612-2.0753-4.2163-4.6372 0.24492-2.5618 2.5311-4.6372 5.1023-4.6372z" fill-rule="evenodd" fill="#888a85"/>
   <g id="g5085" transform="matrix(.62719 0 0 .62488 664.16 506.42)">
    <g id="g5041" transform="matrix(.97953 -.20130 .20130 .97953 53.169 -491.63)">
     <g id="g5043" transform="translate(155.5 358.52)" stroke="#000" fill="none">
      <path id="path5045" d="m-1111 160.5c-11.083 60.019-22.165 120.04-33.248 180.06-11.315-59.604-22.63-119.21-33.946-178.81"/>
      <path id="path5047" d="m-1045.1 183.97c-30.942 52.609-61.884 105.22-92.825 157.83l29.259-179.64"/>
      <path id="path5049" d="m-991.25 228.56c-47.069 38.853-94.138 77.706-141.21 116.56 29.645-52.933 59.29-105.87 88.935-158.8"/>
      <path id="path5051" d="m-955.85 288.9l-172.56 61.235c45.961-39.602 91.923-79.203 137.88-118.8"/>
      <path id="path5053" d="m-943.23 357.7c-61.031-0.49216-122.06-0.98413-183.09-1.4762 56.734-21.494 113.47-42.987 170.2-64.481"/>
      <path id="path5055" d="m-954.9 426.67c-57.182-21.336-114.36-42.673-171.55-64.009 60.664-0.79315 121.33-1.5862 181.99-2.3793"/>
      <path id="path5057" d="m-989.45 487.5c-46.436-39.607-92.873-79.214-139.31-118.82 57.277 20.003 114.55 40.006 171.83 60.009"/>
      <path id="path5059" d="m-1042.7 532.83c-30.089-53.101-60.179-106.2-90.268-159.3 46.981 38.386 93.962 76.773 140.94 115.16"/>
      <path id="path5061" d="m-1108.3 557.21c-10.113-60.189-20.227-120.38-30.34-180.57l93.056 156.42"/>
      <path id="path5063" d="m-1178.2 557.7c11.083-60.019 22.165-120.04 33.248-180.06 11.315 59.604 22.63 119.21 33.946 178.81"/>
      <path id="path5065" d="m-1244.1 534.23c30.942-52.608 61.884-105.22 92.825-157.83l-29.259 179.64"/>
      <path id="path5067" d="m-1298 489.64c47.069-38.853 94.138-77.706 141.21-116.56-29.645 52.933-59.29 105.87-88.935 158.8"/>
      <path id="path5069" d="m-1333.4 429.3l172.56-61.235c-45.961 39.602-91.923 79.203-137.88 118.8"/>
      <path id="path5071" d="m-1346.1 360.5c61.031 0.49222 122.06 0.98413 183.09 1.4761-56.734 21.494-113.47 42.987-170.2 64.481"/>
      <path id="path5073" d="m-1334.4 291.53c57.182 21.336 114.36 42.673 171.55 64.009-60.664 0.79323-121.33 1.5863-181.99 2.3794"/>
      <path id="path5075" d="m-1299.8 230.7c46.436 39.607 92.873 79.214 139.31 118.82-57.277-20.003-114.55-40.006-171.83-60.009"/>
      <path id="path5077" d="m-1246.6 185.37c30.089 53.101 60.179 106.2 90.269 159.3-46.981-38.386-93.962-76.773-140.94-115.16"/>
      <path id="path5079" d="m-1181 160.99c10.113 60.189 20.227 120.38 30.34 180.57l-93.056-156.42"/>
     </g>
     <path id="path5081" d="m-989.15 491.9c-124.66 0-225.72 101.06-225.72 225.72s101.06 225.72 225.72 225.72 225.72-101.06 225.72-225.72-101.06-225.72-225.72-225.72zm0 57.156c93.099 0 168.56 75.463 168.56 168.56 0 93.099-75.463 168.56-168.56 168.56-93.099 0-168.56-75.463-168.56-168.56 0-93.099 75.463-168.56 168.56-168.56z" fill-rule="evenodd" fill="#2e3436"/>
    </g>
    <path id="path5083" d="m-771.28 334.69c-41.817 0-75.719 33.902-75.719 75.719s33.902 75.719 75.719 75.719 75.719-33.902 75.719-75.719-33.902-75.719-75.719-75.719zm7.4208 17.813c4.0997 0 7.1131 3.3212 6.7226 7.4209-0.3904 4.0997-4.0356 7.4209-8.1353 7.4209s-7.0968-3.3212-6.7064-7.4209c0.3905-4.0997 4.0194-7.4209 8.1191-7.4209zm-19.145 0.45467c3.0768-0.1197 5.849 1.8602 6.6901 5.0988 1.0353 3.986-1.2463 8.357-5.0988 9.7592-3.8524 1.4022-7.8145-0.69059-8.8498-4.6766s1.2464-8.357 5.0988-9.7592c0.7224-0.26291 1.4496-0.39457 2.1597-0.4222zm36.504 5.5535c0.9966-0.037 2.0085 0.10412 2.9715 0.45467 3.8525 1.4022 5.5364 5.5531 3.7673 9.272s-6.3126 5.6079-10.165 4.2057-5.5526-5.5531-3.7835-9.272c1.3268-2.7892 4.2199-4.5494 7.2098-4.6604zm-53.813 1.3478c2.0396 0.0659 4.0282 1.0963 5.3423 3.0041 2.3362 3.3915 1.6792 8.2768-1.4614 10.912s-7.5854 2.0275-9.9215-1.364c-2.3362-3.3915-1.6792-8.2768 1.4614-10.912 1.374-1.1529 2.9928-1.6913 4.5792-1.6401zm68.103 10.295c1.9905-0.0833 3.9994 0.5173 5.5697 1.8349 3.1406 2.6352 3.3078 7.1132 0.3735 10.003-2.9344 2.8896-7.8527 3.1062-10.993 0.47091-3.1406-2.6352-3.3078-7.1132-0.3735-10.003 1.4672-1.4448 3.4331-2.2225 5.4236-2.3058zm-82.685 2.2896c1.3697-0.003 2.7688 0.4198 4.027 1.3153 3.3552 2.388 4.4207 7.2155 2.3708 10.766-2.0498 3.5504-6.4364 4.4827-9.7917 2.0947-3.3552-2.388-4.4043-7.1992-2.3545-10.75 1.2812-2.219 3.4653-3.4211 5.7484-3.4263zm92.119 13.543c2.9977-0.13647 6.0134 1.3642 7.5508 4.0271 2.0498 3.5504 0.6766 7.8201-3.0691 9.5318-3.7456 1.7117-8.44 0.22162-10.49-3.3288-2.0498-3.5504-0.6766-7.8201 3.0691-9.5318 0.9364-0.42792 1.9399-0.65274 2.9391-0.69824zm-101.49 3.1989c0.7129-0.0271 1.4479 0.0542 2.1922 0.25981 3.9696 1.0964 6.6063 5.2508 5.8944 9.2882s-4.5067 6.4226-8.4763 5.3261c-3.9696-1.0964-6.6064-5.2508-5.8945-9.2882 0.5785-3.2804 3.1951-5.4685 6.2842-5.5859zm105.66 14.923c3.8142 0.0754 7.2731 2.9538 7.9405 6.7388 0.7119 4.0374-2.0328 7.5806-6.1381 7.908-4.1052 0.32739-8.008-2.6852-8.7199-6.7226s2.0329-7.5806 6.1381-7.908c0.2566-0.0205 0.5251-0.0213 0.7794-0.0163zm-107.87 3.8647c3.8142 0.0754 7.2893 2.97 7.9567 6.7551 0.7119 4.0374-2.0328 7.5644-6.138 7.8918-4.1053 0.32739-8.008-2.669-8.7199-6.7064-0.712-4.0374 2.0328-7.5806 6.138-7.908 0.2566-0.0205 0.5089-0.0375 0.7632-0.0325zm104.88 14.452c0.7129-0.0271 1.4641 0.0542 2.2084 0.25981 3.9696 1.0964 6.6064 5.2671 5.8944 9.3045-0.7119 4.0374-4.5067 6.4226-8.4763 5.3261-3.9696-1.0964-6.6064-5.2671-5.8945-9.3045 0.5785-3.2804 3.1789-5.4685 6.268-5.5859zm-101.23 4.092c2.9977-0.13647 6.0296 1.3642 7.567 4.0271 2.0499 3.5505 0.6767 7.8201-3.069 9.5318s-8.4401 0.22162-10.49-3.3288c-2.0498-3.5504-0.6767-7.8201 3.069-9.5318 0.9364-0.42793 1.9237-0.65275 2.9229-0.69824zm93.045 12.292c1.3698-0.003 2.7689 0.4198 4.0271 1.3153 3.3552 2.388 4.4044 7.1992 2.3545 10.75-2.0498 3.5504-6.4201 4.499-9.7754 2.111-3.3552-2.388-4.4206-7.1992-2.3708-10.75 1.2812-2.219 3.4816-3.4211 5.7646-3.4263zm-82.571 3.6374c1.9906-0.0833 3.9995 0.53353 5.5698 1.8512 3.1405 2.6352 3.3078 7.1132 0.3734 10.003-2.9343 2.8896-7.8527 3.0899-10.993 0.45467-3.1406-2.6352-3.3078-7.1132-0.3735-10.003 1.4672-1.4448 3.433-2.2225 5.4235-2.3058zm69.061 8.8823c2.1298-0.0152 4.2334 1.0168 5.6022 3.0041 2.3362 3.3915 1.6792 8.2768-1.4614 10.912s-7.5854 2.0275-9.9216-1.364c-2.3361-3.3915-1.6791-8.2768 1.4615-10.912 1.1777-0.98822 2.5335-1.5244 3.8971-1.6238 0.1421-0.0103 0.2802-0.0152 0.4222-0.0163zm-53.781 2.5332c0.9966-0.037 1.9922 0.10412 2.9554 0.45467 3.8524 1.4022 5.5525 5.5531 3.7834 9.272-1.769 3.7189-6.3288 5.5916-10.181 4.1895-3.8525-1.4022-5.5364-5.5531-3.7673-9.272 1.3268-2.7892 4.2199-4.5331 7.2098-4.6441zm36.601 4.6441c3.0769-0.1197 5.849 1.8602 6.6902 5.0988 1.0353 3.986-1.2464 8.357-5.0988 9.7592-3.8525 1.4022-7.8146-0.69059-8.8499-4.6766-1.0352-3.986 1.2464-8.357 5.0988-9.7592 0.7224-0.26291 1.4497-0.39457 2.1597-0.4222zm-18.3 0.8931c4.0998 0 7.0969 3.3212 6.7064 7.4209-0.3904 4.0997-4.0193 7.4209-8.1191 7.4209-4.0997 0-7.113-3.3212-6.7226-7.4209 0.3905-4.0997 4.0357-7.4209 8.1353-7.4209z" fill-rule="evenodd" fill="#888a85"/>
   </g>
   <g id="g4607" fill="#babdb6" transform="matrix(.62719 0 0 .62488 1100.1 407.15)">
    <path id="path4578" d="m-945.14 490.93c55.793-14.57 115.59-13.457 170.8 3.1775 30.55 9.2043 60.583 23.748 81.233 48.071 20.82 24.523 30.422 58.052 26.414 89.97-3.3004 26.285-15.865 51.659-36.125 68.727-21.844 18.402-50.955 26.181-79.467 27.878-28.512 1.6966-57.018-2.1467-85.497-4.3264-59.152-4.5273-118.85-1.8573-177.36 7.9324l-2.8571-58 322.13-13.976c8.9375-11.406 13.777-25.957 13.45-40.444-0.32652-14.487-5.8162-28.805-15.259-39.797-9.6062-11.183-22.901-18.708-36.82-23.566-13.919-4.8574-28.561-7.2282-43.12-9.5482-37.241-5.9349-74.512-11.682-111.81-17.241l-25.714-38.857"/>
    <path id="path4583" d="m-950.86 489.79c57.777-14.575 119.52-13.063 176.52 4.3203 30.513 9.3067 60.573 23.764 81.233 48.071 20.833 24.51 30.382 58.048 26.414 89.97-3.2685 26.299-15.772 51.753-36.125 68.727-21.899 18.264-51.076 25.663-79.551 27.202-28.474 1.5393-56.933-2.2289-85.414-3.6508-59.795-2.9854-120.1 4.4715-177.36 21.932l-2.9-118.8c21.276 7.1758 42.145 15.56 62.471 25.1 28.673 13.457 56.28 29.214 85.584 41.233s60.877 20.286 92.45 17.763c15.786-1.2616 31.427-5.2555 45.536-12.449 14.109-7.1936 26.652-17.642 35.628-30.689 8.9769-13.047 14.289-28.719 14.308-44.556 0.0189-15.837-5.3906-31.756-15.655-43.816-9.5586-11.231-22.861-18.778-36.789-23.628-13.928-4.8496-28.583-7.1888-43.151-9.4862-37.251-5.8746-74.521-11.622-111.81-17.241l-31.429-40"/>
   </g>
   <path id="rect4566" d="m542.12 754.63c28.857 0.0509 57.718-5.1015 86.573-4.9212 13.206 0.57281 26.487 15.328 27.956 28.956 0.21257 6.2084 0.33261 12.464-0.0872 18.663-1.9178 13.886-15.924 29.62-29.431 29.601-29.12-0.0306-58.244-6.1434-87.361-6.3179-13.206-0.57281-26.487-10.329-27.956-23.957-0.21256-6.2084-0.33261-12.464 0.0872-18.663 1.9622-14.246 16.446-23.635 30.219-23.361z" fill="#2e3436"/>
   <path id="path4569" d="m-1111.4 140.93a45.714 48.571 0 1 1 -91.429 0 45.714 48.571 0 1 1 91.429 0z" fill-rule="evenodd" transform="matrix(.28016 0 0 .27913 864.28 749.7)" fill="#eeeeec"/>
   <path id="path4571" d="m-1111.4 140.93a45.714 48.571 0 1 1 -91.429 0 45.714 48.571 0 1 1 91.429 0z" fill-rule="evenodd" transform="matrix(.51651 0 0 .51461 1140.1 716.03)" fill="#d3d7cf"/>
   <path id="path5515" fill="url(#radialGradient7198)" fill-rule="evenodd" transform="matrix(.73447 0 0 .72690 1185.9 781.17)" stroke="url(#linearGradient7565)" stroke-width="2.7372" d="m-922.86-3.3521a108.57 70 0 1 1 -0.33446 -5.4902"/>
   <path id="rect4706" d="m177.28 795.88h267v35.707h-238.15c0-11.902-28.851-23.805-28.851-35.707z" fill-rule="evenodd" stroke="#000" fill="#d3d7cf"/>
   <path id="rect4708" d="m215.45 835.87h228.83v35.707h-193.71c0-11.902-35.122-23.805-35.122-35.707z" fill-rule="evenodd" stroke="#000" fill="#d3d7cf"/>
   <path id="path5978" d="m207.22 600.58c-77.51-14.42-104.47 27.21-158.2 58.41l27.942 38.228c54.308-76.39 200.39-78.9 224.36 37.36 22.904 2.7013 19.645 1.8319 42.549 4.5333-16.681-25.967-12.744-50.865-28.684-77.233-9.6896-15.209-22.045-28.506-35.019-40.971-22.747-11.288-47.721-17.781-72.952-20.329z" fill-rule="evenodd" fill="#555753"/>
   <g id="g5969" fill-rule="evenodd" transform="matrix(.62719 0 0 .62488 706.98 34.544)" stroke="url(#radialGradient7202)" stroke-width="3.1947" fill="#888a85">
    <path id="rect5944" d="m-804.43 877.18c144.1 47.444 239.19 28.149 361.36 0 38.735-8.9245-23.535 44.227-26.627 68.038-8.5576 65.91-244.76 46.793-334.74-25.919-29.029-23.459-36.427-54.112 0-42.119z"/>
    <path id="path5947" d="m-804.43 877.18c144.1 47.444 239.19 28.149 361.36 0 38.735-8.9245-23.535 44.227-26.627 68.038-8.5576 65.91-244.76 46.793-334.74-25.919-29.029-23.459-36.427-54.112 0-42.119z"/>
    <path id="path5959" d="m-804.43 877.18c144.1 47.444 239.19 28.149 361.36 0 38.735-8.9245-23.535 44.227-26.627 68.038-8.5576 65.91-244.76 46.793-334.74-25.919-29.029-23.459-36.427-54.112 0-42.119z"/>
   </g>
   <rect id="rect6248" fill-rule="evenodd" height="28.566" width="98.558" y="624.3" x="128.18" fill="#2e3436"/>
   <g id="g6232" transform="matrix(.62719 0 0 .62488 572.59 491.6)" stroke="url(#linearGradient7210)">
    <rect id="rect6168" transform="matrix(.86087 .50882 -.36227 .93207 0 0)" fill-rule="evenodd" rx="0" ry="0" height="191.25" width="24.228" y="498.31" x="-386.79" fill="#555753"/>
    <g id="g6155" transform="matrix(.60833 .35956 -.27556 .70898 277.46 756.76)" fill="#babdb6">
     <rect id="rect6111" width="72.669" fill-rule="evenodd" rx="115.71" transform="matrix(.99189 -.12707 .19385 .98103 0 0)" ry="89.061" y="-182" stroke="url(#linearGradient7210)" x="-1304.9" height="22.365" fill="#babdb6"/>
     <use id="use6113" xlink:href="#rect6111" height="1052.3622" width="744.09448" y="0" x="0"/>
     <use id="use6115" xlink:href="#rect6111" transform="translate(0 23.823)" height="1052.3622" width="744.09448" y="0" x="0"/>
     <use id="use6117" xlink:href="#rect6111" transform="translate(0 47.646)" height="1052.3622" width="744.09448" y="0" x="0"/>
     <use id="use6119" xlink:href="#rect6111" transform="translate(0 71.469)" height="1052.3622" width="744.09448" y="0" x="0"/>
     <use id="use6121" xlink:href="#rect6111" transform="translate(0 95.292)" height="1052.3622" width="744.09448" y="0" x="0"/>
     <use id="use6123" xlink:href="#rect6111" transform="translate(0 119.11)" height="1052.3622" width="744.09448" y="0" x="0"/>
     <use id="use6125" xlink:href="#rect6111" transform="translate(0 142.94)" height="1052.3622" width="744.09448" y="0" x="0"/>
     <use id="use6127" xlink:href="#rect6111" transform="translate(0 166.76)" height="1052.3622" width="744.09448" y="0" x="0"/>
     <use id="use6129" xlink:href="#rect6111" transform="translate(0 190.58)" height="1052.3622" width="744.09448" y="0" x="0"/>
     <use id="use6131" xlink:href="#rect6111" transform="translate(0 214.41)" height="1052.3622" width="744.09448" y="0" x="0"/>
    </g>
    <path id="path6185" d="m-1160 810.93c0 16.569-12.152 30-27.143 30s-27.143-13.431-27.143-30 12.152-30 27.143-30 27.143 13.431 27.143 30z" fill-rule="evenodd" transform="matrix(.60833 .35956 -.27556 .70898 448.39 107.99)" fill="#2e3436"/>
   </g>
   <rect id="rect6812" fill-rule="evenodd" height="74.986" width="141.38" y="665.36" x="345.42" fill="#474848"/>
   <rect id="rect6814" transform="matrix(.99333 -.11532 .16262 .98669 0 0)" fill-rule="evenodd" rx="17.748" ry="33.904" height="36.237" width="114.37" stroke="url(#linearGradient7923)" y="686.94" x="214.4" stroke-width="1.0006" fill="#babdb6"/>
   <path id="path7576" d="m745.02 590.03c-27.095-0.48268-54.908 27.572-82.002 27.089 3.4917-5.7843 26.065-14.594 25.342-28.761-0.72236-14.166-24.74-33.689-21.248-39.473 6.9835-11.569 30.823-9.2485 37.807-20.817 13.128 23.62 26.974 38.342 40.102 61.961z" fill-rule="evenodd" fill="#2e3436"/>
   <rect id="rect5476" fill-rule="evenodd" transform="matrix(.83295 -.55334 .52563 .85072 0 0)" height="374.97" width="22.257" stroke="url(#linearGradient7919)" y="754.71" x="321.44" stroke-width=".98206" fill="url(#radialGradient7917)"/>
   <g id="g7748" fill-rule="evenodd" transform="matrix(.24479 .29459 -.31135 .22163 964.5 811.26)" fill="#2e3436">
    <path id="path7744" d="m-1174.3 223.79c0 15.78-12.792 28.571-28.572 28.571s-28.571-12.792-28.571-28.571c0-15.78 12.792-28.571 28.571-28.571 15.78 0 28.572 12.792 28.572 28.571z" transform="translate(19.143 -105.71)"/>
    <rect id="rect7746" height="162.86" width="49.565" y="-33.352" x="-1208.6"/>
   </g>
   <rect id="rect8973" fill-rule="evenodd" transform="rotate(-32.531)" height="113.7" width="34.985" stroke="url(#linearGradient7911)" y="949.16" x="304.03" fill="#eeeeec"/>
   <rect id="rect8987" stroke-linejoin="round" fill-rule="evenodd" transform="rotate(-32.481)" stroke-dashoffset="68.23" height="57.859" width="9.4189" stroke="url(#linearGradient7908)" stroke-linecap="round" y="978.37" x="318.26" stroke-width=".95650" fill="#f57900"/>
   <g id="g4271" transform="matrix(.47143 0 0 .18025 239.11 536.59)">
    <rect id="rect4269" fill-rule="evenodd" height="91.498" width="94.189" y="515.48" x="-178.96" fill="#fce94f"/>
    <g id="g4220" stroke="#ca1300" fill="#ca1300">
     <rect id="use4158" y="-532.75" fill-rule="evenodd" transform="scale(1,-1)" height="4.292" width="89.682" x="-176.27" fill="#ef2929"/>
     <use id="use4192" xlink:href="#use4158" height="744.09448" width="1052.3622" y="0" x="0"/>
     <use id="use4194" xlink:href="#use4158" transform="translate(0 4.5924)" height="744.09448" width="1052.3622" y="0" x="0"/>
     <use id="use4196" xlink:href="#use4158" transform="translate(0 9.1849)" height="744.09448" width="1052.3622" y="0" x="0"/>
     <use id="use4198" xlink:href="#use4158" transform="translate(0 13.777)" height="744.09448" width="1052.3622" y="0" x="0"/>
     <use id="use4200" xlink:href="#use4158" transform="translate(0 18.37)" height="744.09448" width="1052.3622" y="0" x="0"/>
     <use id="use4202" xlink:href="#use4158" transform="translate(0 22.962)" height="744.09448" width="1052.3622" y="0" x="0"/>
     <use id="use4204" xlink:href="#use4158" transform="translate(0 27.555)" height="744.09448" width="1052.3622" y="0" x="0"/>
     <use id="use4206" xlink:href="#use4158" transform="translate(0 32.147)" height="744.09448" width="1052.3622" y="0" x="0"/>
     <use id="use4208" xlink:href="#use4158" transform="translate(0 36.74)" height="744.09448" width="1052.3622" y="0" x="0"/>
     <use id="use4210" xlink:href="#use4158" transform="translate(0 41.332)" height="744.09448" width="1052.3622" y="0" x="0"/>
     <use id="use4212" xlink:href="#use4158" transform="translate(0 45.924)" height="744.09448" width="1052.3622" y="0" x="0"/>
     <use id="use4214" xlink:href="#use4158" transform="translate(0 50.517)" height="744.09448" width="1052.3622" y="0" x="0"/>
     <use id="use4216" xlink:href="#use4158" transform="translate(0 55.109)" height="744.09448" width="1052.3622" y="0" x="0"/>
     <use id="use4218" xlink:href="#use4158" transform="translate(0 59.702)" height="744.09448" width="1052.3622" y="0" x="0"/>
    </g>
    <g id="g4237" transform="matrix(0 -1 1 0 -691.88 429.03)">
     <rect id="rect4239" fill-rule="evenodd" transform="scale(1,-1)" height="4.292" width="89.682" y="-532.75" x="-176.27" fill="#ef2929"/>
     <use id="use4241" xlink:href="#use4158" height="744.09448" width="1052.3622" stroke="#ca1300" y="0" x="0" fill="#ca1300"/>
     <use id="use4243" xlink:href="#use4158" transform="translate(0 4.5924)" height="744.09448" width="1052.3622" stroke="#ca1300" y="0" x="0" fill="#ca1300"/>
     <use id="use4245" xlink:href="#use4158" transform="translate(0 9.1849)" height="744.09448" width="1052.3622" stroke="#ca1300" y="0" x="0" fill="#ca1300"/>
     <use id="use4247" xlink:href="#use4158" transform="translate(0 13.777)" height="744.09448" width="1052.3622" stroke="#ca1300" y="0" x="0" fill="#ca1300"/>
     <use id="use4249" xlink:href="#use4158" transform="translate(0 18.37)" height="744.09448" width="1052.3622" stroke="#ca1300" y="0" x="0" fill="#ca1300"/>
     <use id="use4251" xlink:href="#use4158" transform="translate(0 22.962)" height="744.09448" width="1052.3622" stroke="#ca1300" y="0" x="0" fill="#ca1300"/>
     <use id="use4253" xlink:href="#use4158" transform="translate(0 27.555)" height="744.09448" width="1052.3622" stroke="#ca1300" y="0" x="0" fill="#ca1300"/>
     <use id="use4255" xlink:href="#use4158" transform="translate(0 32.147)" height="744.09448" width="1052.3622" stroke="#ca1300" y="0" x="0" fill="#ca1300"/>
     <use id="use4257" xlink:href="#use4158" transform="translate(0 36.74)" height="744.09448" width="1052.3622" stroke="#ca1300" y="0" x="0" fill="#ca1300"/>
     <use id="use4259" xlink:href="#use4158" transform="translate(0 41.332)" height="744.09448" width="1052.3622" stroke="#ca1300" y="0" x="0" fill="#ca1300"/>
     <use id="use4261" xlink:href="#use4158" transform="translate(0 45.924)" height="744.09448" width="1052.3622" stroke="#ca1300" y="0" x="0" fill="#ca1300"/>
     <use id="use4263" xlink:href="#use4158" transform="translate(0 50.517)" height="744.09448" width="1052.3622" stroke="#ca1300" y="0" x="0" fill="#ca1300"/>
     <use id="use4265" xlink:href="#use4158" transform="translate(0 55.109)" height="744.09448" width="1052.3622" stroke="#ca1300" y="0" x="0" fill="#ca1300"/>
     <use id="use4267" xlink:href="#use4158" transform="translate(0 59.702)" height="744.09448" width="1052.3622" stroke="#ca1300" y="0" x="0" fill="#ca1300"/>
    </g>
   </g>
   <path id="path4472" d="m-157.43 345.81a33.639 53.822 0 0 1 -67.222 3.1107l33.583-3.1107z" fill-rule="evenodd" transform="matrix(0 -.43953 .61838 0 -101.28 553.47)" fill="#888a85"/>
   <path id="path4920" d="m-1111.4 140.93a45.714 48.571 0 1 1 -91.429 0 45.714 48.571 0 1 1 91.429 0z" fill-rule="evenodd" transform="matrix(.51651 0 0 .51461 1206.1 716.03)" fill="#d3d7cf"/>
   <path id="path4922" d="m-150.7 224.04a37.003 37.003 0 1 1 -74.006 0 37.003 37.003 0 1 1 74.006 0z" fill-rule="evenodd" transform="matrix(.49091 0 0 .49091 633.73 677.98)" stroke="url(#linearGradient7252)" stroke-width="2.037" fill="url(#radialGradient7250)"/>
   <path id="path4942" d="m-150.7 224.04a37.003 37.003 0 1 1 -74.006 0 37.003 37.003 0 1 1 74.006 0z" fill-rule="evenodd" transform="matrix(.49091 0 0 .49091 699.73 677.98)" stroke="url(#linearGradient7252)" stroke-width="2.037" fill="url(#radialGradient7250)"/>
   <path id="path4948" d="m-157.43 345.81a33.639 53.822 0 0 1 -67.222 3.1107l33.583-3.1107z" fill-rule="evenodd" transform="matrix(0 -.43953 .61838 0 -101.28 553.47)" stroke="#000" stroke-width="1.9181" fill="url(#linearGradient7258)"/>
   <path id="path4962" d="m177.28 795.88h267v35.707h-238.15c0-11.902-28.851-23.805-28.851-35.707z" fill-rule="evenodd" stroke="#000" fill="url(#radialGradient7866)"/>
   <path id="path4974" d="m215.45 835.87h228.83v35.707h-193.71c0-11.902-35.122-23.805-35.122-35.707z" fill-rule="evenodd" stroke="#000" fill="url(#linearGradient7863)"/>
   <rect id="rect5458" ry="33.904" fill-rule="evenodd" rx="17.748" transform="matrix(.99333 -.11532 .16262 .98669 0 0)" height="36.237" width="114.37" stroke="url(#radialGradient7860)" y="686.94" x="214.4" stroke-width="1.0006" fill="url(#radialGradient7858)"/>
   <rect id="rect5533" transform="matrix(.86169 .50744 -.36343 .93162 0 0)" rx="0" ry="0" height="119.57" width="15.181" stroke="url(#linearGradient7855)" y="446.31" x="478.98" stroke-width=".62589" fill="none"/>
   <path id="path5559" d="m-1160 810.93a27.143 30 0 1 1 -54.286 0 27.143 30 0 1 1 54.286 0z" transform="matrix(.38153 .22468 -.17283 .44303 853.81 559.08)" stroke="url(#linearGradient7210)" fill="none"/>
   <g id="g5535" transform="matrix(.38153 .22468 -.17283 .44303 746.61 964.48)" stroke="url(#linearGradient7272)">
    <rect id="rect5537" stroke-width="1.0013" width="72.669" rx="115.71" transform="matrix(.99189 -.12707 .19385 .98103 0 0)" ry="89.061" y="-182" x="-1304.9" height="22.365" fill="#fff"/>
    <use id="use5539" xlink:href="#rect6111" height="1052.3622" width="744.09448" y="0" x="0" stroke-width="1.0002" fill="#ffffff"/>
    <use id="use5541" xlink:href="#rect6111" transform="translate(0 23.823)" height="1052.3622" width="744.09448" y="0" x="0" stroke-width="1.0002" fill="#ffffff"/>
    <use id="use5543" xlink:href="#rect6111" transform="translate(0 47.646)" height="1052.3622" width="744.09448" y="0" x="0" stroke-width="1.0002" fill="#ffffff"/>
    <use id="use5545" xlink:href="#rect6111" transform="translate(0 71.469)" height="1052.3622" width="744.09448" y="0" x="0" stroke-width="1.0002" fill="#ffffff"/>
    <use id="use5547" xlink:href="#rect6111" transform="translate(0 95.292)" height="1052.3622" width="744.09448" y="0" x="0" stroke-width="1.0002" fill="#ffffff"/>
    <use id="use5549" xlink:href="#rect6111" transform="translate(0 119.11)" height="1052.3622" width="744.09448" y="0" x="0" stroke-width="1.0002" fill="#ffffff"/>
    <use id="use5551" xlink:href="#rect6111" transform="translate(0 142.94)" height="1052.3622" width="744.09448" y="0" x="0" stroke-width="1.0002" fill="#ffffff"/>
    <use id="use5553" xlink:href="#rect6111" transform="translate(0 166.76)" height="1052.3622" width="744.09448" y="0" x="0" stroke-width="1.0002" fill="#ffffff"/>
    <use id="use5555" xlink:href="#rect6111" transform="translate(0 190.58)" height="1052.3622" width="744.09448" y="0" x="0" stroke-width="1.0002" fill="#ffffff"/>
    <use id="use5557" xlink:href="#rect6111" transform="translate(0 214.41)" height="1052.3622" width="744.09448" y="0" x="0" stroke-width="1.0002" fill="#ffffff"/>
   </g>
   <g id="g5663" fill-rule="evenodd" transform="matrix(.62719 0 0 .62488 706.98 34.544)" stroke="url(#linearGradient7298)" stroke-width="1.7571" fill="url(#radialGradient7296)">
    <path id="path5665" d="m-804.43 877.18c144.1 47.444 239.19 28.149 361.36 0 38.735-8.9245-23.535 44.227-26.627 68.038-8.5576 65.91-244.76 46.793-334.74-25.919-29.029-23.459-36.427-54.112 0-42.119z"/>
    <path id="path5667" d="m-804.43 877.18c144.1 47.444 239.19 28.149 361.36 0 38.735-8.9245-23.535 44.227-26.627 68.038-8.5576 65.91-244.76 46.793-334.74-25.919-29.029-23.459-36.427-54.112 0-42.119z"/>
    <path id="path5669" d="m-804.43 877.18c144.1 47.444 239.19 28.149 361.36 0 38.735-8.9245-23.535 44.227-26.627 68.038-8.5576 65.91-244.76 46.793-334.74-25.919-29.029-23.459-36.427-54.112 0-42.119z"/>
   </g>
   <path id="path6933" d="m-177.14 468.08a44.286 44.286 0 1 1 -88.571 0 44.286 44.286 0 1 1 88.571 0z" fill-rule="evenodd" transform="matrix(.28522 -.013853 .014329 .27575 697.77 447.48)" fill="#fcaf3e"/>
  </g>
 </g>
 <metadata>
  <rdf:RDF>
   <cc:Work>
    <dc:format>image/svg+xml</dc:format>
    <dc:type rdf:resource="http://purl.org/dc/dcmitype/StillImage"/>
    <cc:license rdf:resource="http://creativecommons.org/licenses/publicdomain/"/>
    <dc:publisher>
     <cc:Agent rdf:about="http://openclipart.org/">
      <dc:title>Openclipart</dc:title>
     </cc:Agent>
    </dc:publisher>
   </cc:Work>
   <cc:License rdf:about="http://creativecommons.org/licenses/publicdomain/">
    <cc:permits rdf:resource="http://creativecommons.org/ns#Reproduction"/>
    <cc:permits rdf:resource="http://creativecommons.org/ns#Distribution"/>
    <cc:permits rdf:resource="http://creativecommons.org/ns#DerivativeWorks"/>
   </cc:License>
  </rdf:RDF>
 </metadata>
</svg>
