<?xml version="1.0" encoding="UTF-8" standalone="no"?><svg xmlns="http://www.w3.org/2000/svg" xmlns:xlink="http://www.w3.org/1999/xlink" contentStyleType="text/css" height="231px" preserveAspectRatio="none" style="width:789px;height:231px;background:#FFFFFF;" version="1.1" viewBox="0 0 789 231" width="789px" zoomAndPan="magnify"><defs/><g><!--MD5=[a5e7c8cc5e6f24218ec8bee46f416713]
cluster Steampunk--><g id="cluster_Steampunk"><path d="M22.1779,32.392 C25.4587,27.2441 29.7276,27.1276 33.6782,31.5903 C36.3713,25.6161 41.3463,24.1294 45.8416,29.6899 C49.1339,23.2684 53.8148,22.764 57.9649,28.859 C59.726,23.6754 64.4417,22.3943 68.2429,26.6338 C71.1707,21.9377 76.6279,21.4723 79.6299,26.5473 C84.0622,19.5633 89.6006,20.6374 93.0977,27.4596 C97.7131,21.5162 101.7855,23.1194 105.1546,28.7571 C108.6358,23.763 113.8246,25.0857 115.7338,30.3744 C120.0258,25.0992 124.1704,25.3297 127.1574,31.659 C131.4238,25.5351 135.7937,26.0586 139.9268,31.8024 C145.8725,34.5585 147.1409,39.385 141.4932,43.6712 C148.043,45.8678 148.439,50.8866 143.6484,55.2027 C149.5573,58.4509 149.7028,63.9673 144.4199,67.8957 C149.5319,71.4193 150.0983,75.0572 144.4023,78.563 C149.7341,83.7179 147.9641,89.1653 140.8321,90.6338 C146.0635,94.2384 146.8763,100.0389 140.3164,103.1579 C136.0433,107.9787 132.386,109.3639 128.4054,102.8506 C125.5797,110.2707 120.5134,109.7601 115.5891,105.0719 C111.841,109.6666 108.3498,110.3118 104.4196,105.2832 C101.1315,110.9189 97.7718,111.7837 93.5917,106.1395 C90.0246,111.6253 84.8328,112.531 80.8576,106.5945 C76.1504,111.633 72.2977,112.2429 68.7003,105.4538 C64.289,111.0975 61.0057,109.2347 57.5818,104.4055 C54.9476,110.7726 49.6823,110.7937 46.2785,105.1284 C41.7524,111.1041 36.9943,110.7589 33.4146,104.1601 C29.0395,109.2361 24.2694,108.5359 21.794,102.2219 C15.2653,101.2316 14.6763,96.6568 18.103,92.0529 C11.6245,90.2607 10.6821,84.478 15.2839,80.0774 C9.3443,77.8407 7.0572,73.7072 12.4039,68.6309 C6,63.7511 7.7905,57.578 14.7695,55.0252 C11.0682,49.8906 12.4408,45.2352 19.2926,44.7429 C15.0055,39.7729 15.2721,34.7472 22.1779,32.392 " fill="none" style="stroke:#181818;stroke-width:1.0;"/><text fill="#000000" font-family="sans-serif" font-size="14" font-weight="bold" lengthAdjust="spacing" textLength="91" x="34.0939" y="49.0444">Steampunk</text></g><!--MD5=[ab3e600feaa2467734c27ee905e339c9]
cluster Embedded\nSteampunk--><g id="cluster_Embedded\nSteampunk"><path d="M185.6904,17.2215 C188.3759,9.3594 194.465,7.8764 200.2097,14.0589 C204.6206,8.7538 208.9037,7.0399 213.2795,14.0961 C217.4327,6.6346 222.1918,7.6475 226.7716,13.6692 C230.1481,7.3364 233.8717,6 239.1987,11.6457 C243.9039,6.1551 247.7461,7.6786 251.2531,12.9835 C256.2423,6.0449 262.609,7.4725 265.698,14.8948 C270.0891,9.6543 274.6518,9.5065 278.3115,15.7016 C286.4984,7.6174 295.0373,11.0368 296.5939,22.0493 C297.6146,21.4676 298.4576,21.7882 298.5088,23.0541 C304.7801,26.206 305.2873,30.7019 299.2654,34.6554 C306.3959,37.1508 308.4471,43.1043 302.0716,48.3645 C307.3856,51.5035 308.8257,55.294 303.1017,59.4579 C307.4811,64.1221 306.8773,67.7607 301.2087,70.7388 C306.7341,75.6096 307.055,79.737 300.0616,83.4808 C306.0308,93.1914 302.3638,102.9025 289.5939,102.0493 C290.5423,101.2256 291.1179,101.4617 291.5644,102.5631 C288.372,110.7801 282.0711,110.6693 277.236,104.1616 C275.494,111.7944 269.2756,113.5604 264.1127,107.4214 C260.3683,112.713 256.3284,113.7593 251.8012,108.3195 C247.9726,115.2719 243.5019,115.0207 238.6583,109.3788 C233.1697,115.8299 228.58,113.8009 225.066,107.3055 C220.7806,112.1363 216.4011,111.2074 213.7677,105.5294 C209.1603,112.9682 204.0834,113.1742 199.1357,105.8671 C187.8546,111.412 179.4924,109.2198 178.5939,95.0493 C179.8687,94.5955 180.5379,95.0652 180.6196,96.4004 C172.7273,92.7393 173.3168,88.4717 178.7364,82.9472 C172.5565,80.6243 171.6176,76.076 175.58,71.06 C170.7478,67.2285 169.9611,63.3983 175.514,59.5075 C170.0077,55.1828 169.8615,49.8309 176.4698,46.3888 C172.9678,42.6528 174.0313,37.8773 178.9633,36.2066 C170.2449,26.4762 172.0752,17.8107 185.5939,15.0493 C186.7989,15.7145 186.5832,16.4631 185.6904,17.2215 " fill="none" style="stroke:#181818;stroke-width:1.0;"/><text fill="#000000" font-family="sans-serif" font-size="14" font-weight="bold" lengthAdjust="spacing" textLength="82" x="196.5939" y="33.0444">Embedded</text><text fill="#000000" font-family="sans-serif" font-size="14" font-weight="bold" lengthAdjust="spacing" textLength="91" x="192.0939" y="49.3413">Steampunk</text></g><!--MD5=[c838442abb393ebdace5cd7fad4225fc]
cluster ECC/S4--><g id="cluster_ECC/S4"><path d="M338.1779,32.392 C341.4587,27.2441 345.7276,27.1276 349.6782,31.5903 C352.3713,25.6161 357.3463,24.1294 361.8416,29.6899 C365.1339,23.2684 369.8148,22.764 373.9649,28.859 C375.726,23.6754 380.4417,22.3943 384.2429,26.6338 C387.1707,21.9377 392.6279,21.4723 395.6299,26.5473 C400.0622,19.5633 405.6006,20.6374 409.0977,27.4596 C413.7131,21.5162 417.7855,23.1194 421.1546,28.7571 C424.6358,23.763 429.8246,25.0857 431.7338,30.3744 C436.0258,25.0992 440.1704,25.3297 443.1574,31.659 C447.4238,25.5351 451.7937,26.0586 455.9268,31.8024 C461.8725,34.5585 463.1409,39.385 457.4932,43.6712 C464.043,45.8678 464.439,50.8866 459.6484,55.2027 C465.5573,58.4509 465.7028,63.9673 460.4199,67.8957 C465.5319,71.4193 466.0983,75.0572 460.4023,78.563 C465.7341,83.7179 463.9641,89.1653 456.8321,90.6338 C462.0635,94.2384 462.8763,100.0389 456.3164,103.1579 C452.0433,107.9787 448.386,109.3639 444.4054,102.8506 C441.5797,110.2707 436.5134,109.7601 431.5891,105.0719 C427.841,109.6666 424.3498,110.3118 420.4196,105.2832 C417.1315,110.9189 413.7718,111.7837 409.5917,106.1395 C406.0246,111.6253 400.8328,112.531 396.8576,106.5945 C392.1504,111.633 388.2977,112.2429 384.7003,105.4538 C380.289,111.0975 377.0057,109.2347 373.5818,104.4055 C370.9476,110.7726 365.6823,110.7937 362.2785,105.1284 C357.7524,111.1041 352.9943,110.7589 349.4146,104.1601 C345.0395,109.2361 340.2694,108.5359 337.794,102.2219 C331.2653,101.2316 330.6763,96.6568 334.103,92.0529 C327.6245,90.2607 326.6821,84.478 331.2839,80.0774 C325.3443,77.8407 323.0572,73.7072 328.4039,68.6309 C322,63.7511 323.7905,57.578 330.7695,55.0252 C327.0682,49.8906 328.4408,45.2352 335.2926,44.7429 C331.0055,39.7729 331.2721,34.7472 338.1779,32.392 " fill="none" style="stroke:#181818;stroke-width:1.0;"/><text fill="#000000" font-family="sans-serif" font-size="14" font-weight="bold" lengthAdjust="spacing" textLength="54" x="368.5939" y="49.0444">ECC/S4</text></g><!--MD5=[e3e09a68121a6fe5b39478a70ab3fd32]
cluster Microservice--><g id="cluster_Microservice"><path d="M496.1779,32.392 C499.4587,27.2441 503.7276,27.1276 507.6782,31.5903 C510.3713,25.6161 515.3463,24.1294 519.8416,29.6899 C523.1339,23.2684 527.8148,22.764 531.9649,28.859 C533.726,23.6754 538.4417,22.3943 542.2429,26.6338 C545.1707,21.9377 550.6279,21.4723 553.6299,26.5473 C558.0622,19.5633 563.6006,20.6374 567.0977,27.4596 C571.7131,21.5162 575.7855,23.1194 579.1546,28.7571 C582.6358,23.763 587.8246,25.0857 589.7338,30.3744 C594.0258,25.0992 598.1704,25.3297 601.1574,31.659 C605.4238,25.5351 609.7937,26.0586 613.9268,31.8024 C619.8725,34.5585 621.1409,39.385 615.4932,43.6712 C622.043,45.8678 622.439,50.8866 617.6484,55.2027 C623.5573,58.4509 623.7028,63.9673 618.4199,67.8957 C623.5319,71.4193 624.0983,75.0572 618.4023,78.563 C623.7341,83.7179 621.9641,89.1653 614.8321,90.6338 C620.0635,94.2384 620.8763,100.0389 614.3164,103.1579 C610.0433,107.9787 606.386,109.3639 602.4054,102.8506 C599.5797,110.2707 594.5134,109.7601 589.5891,105.0719 C585.841,109.6666 582.3498,110.3118 578.4196,105.2832 C575.1315,110.9189 571.7718,111.7837 567.5917,106.1395 C564.0246,111.6253 558.8328,112.531 554.8576,106.5945 C550.1504,111.633 546.2977,112.2429 542.7003,105.4538 C538.289,111.0975 535.0057,109.2347 531.5818,104.4055 C528.9476,110.7726 523.6823,110.7937 520.2785,105.1284 C515.7524,111.1041 510.9943,110.7589 507.4146,104.1601 C503.0395,109.2361 498.2694,108.5359 495.794,102.2219 C489.2653,101.2316 488.6763,96.6568 492.103,92.0529 C485.6245,90.2607 484.6821,84.478 489.2839,80.0774 C483.3443,77.8407 481.0572,73.7072 486.4039,68.6309 C480,63.7511 481.7905,57.578 488.7695,55.0252 C485.0682,49.8906 486.4408,45.2352 493.2926,44.7429 C489.0055,39.7729 489.2721,34.7472 496.1779,32.392 " fill="none" style="stroke:#181818;stroke-width:1.0;"/><text fill="#000000" font-family="sans-serif" font-size="14" font-weight="bold" lengthAdjust="spacing" textLength="102" x="502.5939" y="49.0444">Microservice</text></g><!--MD5=[8699c0c8e953ee53654a072cc875bfb4]
cluster Browser--><g id="cluster_Browser"><path d="M654.1779,32.392 C657.4587,27.2441 661.7276,27.1276 665.6782,31.5903 C668.3713,25.6161 673.3463,24.1294 677.8416,29.6899 C681.1339,23.2684 685.8148,22.764 689.9649,28.859 C691.726,23.6754 696.4417,22.3943 700.2429,26.6338 C703.1707,21.9377 708.6279,21.4723 711.6299,26.5473 C716.0622,19.5633 721.6006,20.6374 725.0977,27.4596 C729.7131,21.5162 733.7855,23.1194 737.1546,28.7571 C740.6358,23.763 745.8246,25.0857 747.7338,30.3744 C752.0258,25.0992 756.1704,25.3297 759.1574,31.659 C763.4238,25.5351 767.7937,26.0586 771.9268,31.8024 C777.8725,34.5585 779.1409,39.385 773.4932,43.6712 C780.043,45.8678 780.439,50.8866 775.6484,55.2027 C781.5573,58.4509 781.7028,63.9673 776.4199,67.8957 C781.5319,71.4193 782.0983,75.0572 776.4023,78.563 C781.7341,83.7179 779.9641,89.1653 772.8321,90.6338 C778.0635,94.2384 778.8763,100.0389 772.3164,103.1579 C768.0433,107.9787 764.386,109.3639 760.4054,102.8506 C757.5797,110.2707 752.5134,109.7601 747.5891,105.0719 C743.841,109.6666 740.3498,110.3118 736.4196,105.2832 C733.1315,110.9189 729.7718,111.7837 725.5917,106.1395 C722.0246,111.6253 716.8328,112.531 712.8576,106.5945 C708.1504,111.633 704.2977,112.2429 700.7003,105.4538 C696.289,111.0975 693.0057,109.2347 689.5818,104.4055 C686.9476,110.7726 681.6823,110.7937 678.2785,105.1284 C673.7524,111.1041 668.9943,110.7589 665.4146,104.1601 C661.0395,109.2361 656.2694,108.5359 653.794,102.2219 C647.2653,101.2316 646.6763,96.6568 650.103,92.0529 C643.6245,90.2607 642.6821,84.478 647.2839,80.0774 C641.3443,77.8407 639.0572,73.7072 644.4039,68.6309 C638,63.7511 639.7905,57.578 646.7695,55.0252 C643.0682,49.8906 644.4408,45.2352 651.2926,44.7429 C647.0055,39.7729 647.2721,34.7472 654.1779,32.392 " fill="none" style="stroke:#181818;stroke-width:1.0;"/><text fill="#000000" font-family="sans-serif" font-size="14" font-weight="bold" lengthAdjust="spacing" textLength="66" x="678.5939" y="49.0444">Browser</text></g><!--MD5=[d8ead0fe20f225c12512cb84d5f6127e]
entity logic1--><g id="elem_logic1"><rect fill="#F1F1F1" height="36.2969" rx="2.5" ry="2.5" style="stroke:#181818;stroke-width:0.5;" width="101" x="29.0939" y="58.0493"/><text fill="#000000" font-family="sans-serif" font-size="14" lengthAdjust="spacing" textLength="81" x="39.0939" y="81.0444">ABAP Logic</text></g><!--MD5=[25002a242925dad9c6c4e44cdd884cf3]
entity logic2--><g id="elem_logic2"><rect fill="#F1F1F1" height="36.2969" rx="2.5" ry="2.5" style="stroke:#181818;stroke-width:0.5;" width="101" x="187.0939" y="58.0493"/><text fill="#000000" font-family="sans-serif" font-size="14" lengthAdjust="spacing" textLength="81" x="197.0939" y="81.0444">ABAP Logic</text></g><!--MD5=[6d77faa8a911fbfe7122c769c05fc900]
entity logic3--><g id="elem_logic3"><rect fill="#F1F1F1" height="36.2969" rx="2.5" ry="2.5" style="stroke:#181818;stroke-width:0.5;" width="101" x="345.0939" y="58.0493"/><text fill="#000000" font-family="sans-serif" font-size="14" lengthAdjust="spacing" textLength="81" x="355.0939" y="81.0444">ABAP Logic</text></g><!--MD5=[2fef289e64bafdd636eeff34d146f6f5]
entity logic4--><g id="elem_logic4"><rect fill="#F1F1F1" height="36.2969" rx="2.5" ry="2.5" style="stroke:#181818;stroke-width:0.5;" width="101" x="503.0939" y="58.0493"/><text fill="#000000" font-family="sans-serif" font-size="14" lengthAdjust="spacing" textLength="81" x="513.0939" y="81.0444">ABAP Logic</text></g><!--MD5=[408961c9281b0cd9fa955e73f403627e]
entity logic5--><g id="elem_logic5"><rect fill="#F1F1F1" height="36.2969" rx="2.5" ry="2.5" style="stroke:#181818;stroke-width:0.5;" width="101" x="661.0939" y="58.0493"/><text fill="#000000" font-family="sans-serif" font-size="14" lengthAdjust="spacing" textLength="81" x="671.0939" y="81.0444">ABAP Logic</text></g><!--MD5=[dde18268bc86dc3a8e6c8c272b784dc0]
entity logic--><g id="elem_logic"><rect fill="#F1F1F1" height="52.5938" rx="2.5" ry="2.5" style="stroke:#181818;stroke-width:0.5;" width="108" x="341.5939" y="173.0493"/><text fill="#000000" font-family="sans-serif" font-size="14" lengthAdjust="spacing" textLength="81" x="351.5939" y="196.0444">ABAP Logic</text><text fill="#000000" font-family="sans-serif" font-size="14" lengthAdjust="spacing" textLength="88" x="351.5939" y="212.3413">stored in git</text></g><!--MD5=[edd46b975881b88f297a039568e6a27e]
link logic to logic--><g id="link_logic_logic"><path d="M449.9089,187.5559 C469.0569,187.364 484.5939,191.3618 484.5939,199.5493 C484.5939,206.9692 471.8339,210.9482 455.1899,211.4862 " fill="none" id="logic-to-logic" style="stroke:#181818;stroke-width:1.0;"/><polygon fill="#181818" points="449.9089,211.5427,458.9518,215.4447,454.9086,211.4884,458.8649,207.4452,449.9089,211.5427" style="stroke:#181818;stroke-width:1.0;"/><text fill="#000000" font-family="sans-serif" font-size="13" lengthAdjust="spacing" textLength="12" x="490.5939" y="204.1162">CI</text></g><!--MD5=[ec8980317e9780036191b878296a412d]
reverse link logic1 to logic--><g id="link_logic1_logic"><path d="M120.3759,96.2593 C135.9689,103.3823 153.9919,111.3513 170.5939,118.0493 C228.3059,141.3312 295.6339,164.9671 341.4959,180.549 " fill="none" id="logic1-backto-logic" style="stroke:#181818;stroke-width:1.0;"/><polygon fill="#181818" points="115.6199,94.0773,122.1329,101.4652,120.1646,96.1618,125.4681,94.1936,115.6199,94.0773" style="stroke:#181818;stroke-width:1.0;"/><text fill="#000000" font-family="sans-serif" font-size="13" lengthAdjust="spacing" textLength="45" x="233.5939" y="139.1162">Deploy</text></g><!--MD5=[fcdb38a5282512c43483986ffd3d3d96]
reverse link logic2 to logic--><g id="link_logic2_logic"><path d="M264.1029,97.4343 C291.1389,118.2243 333.1569,150.5359 362.3919,173.0176 " fill="none" id="logic2-backto-logic" style="stroke:#181818;stroke-width:1.0;"/><polygon fill="#181818" points="259.8959,94.1993,264.5919,102.8565,263.8594,97.2473,269.4687,96.5148,259.8959,94.1993" style="stroke:#181818;stroke-width:1.0;"/><text fill="#000000" font-family="sans-serif" font-size="13" lengthAdjust="spacing" textLength="45" x="322.5939" y="139.1162">Deploy</text></g><!--MD5=[f053c1ae9e63e151a7a17c030144f147]
reverse link logic3 to logic--><g id="link_logic3_logic"><path d="M395.5939,99.2593 C395.5939,120.0783 395.5939,151.1835 395.5939,173.0176 " fill="none" id="logic3-backto-logic" style="stroke:#181818;stroke-width:1.0;"/><polygon fill="#181818" points="395.5939,94.1993,391.5939,103.1993,395.5939,99.1993,399.5939,103.1993,395.5939,94.1993" style="stroke:#181818;stroke-width:1.0;"/><text fill="#000000" font-family="sans-serif" font-size="13" lengthAdjust="spacing" textLength="45" x="396.5939" y="139.1162">Deploy</text></g><!--MD5=[4a30dec598f3bf6301f5325cc1de36f9]
reverse link logic4 to logic--><g id="link_logic4_logic"><path d="M527.0849,97.4343 C500.0489,118.2243 458.0309,150.5359 428.7959,173.0176 " fill="none" id="logic4-backto-logic" style="stroke:#181818;stroke-width:1.0;"/><polygon fill="#181818" points="531.2919,94.1993,521.7191,96.5148,527.3283,97.2473,526.5959,102.8565,531.2919,94.1993" style="stroke:#181818;stroke-width:1.0;"/><text fill="#000000" font-family="sans-serif" font-size="13" lengthAdjust="spacing" textLength="45" x="489.5939" y="139.1162">Deploy</text></g><!--MD5=[744ae828289c6af11ac5844c4d7496fb]
reverse link logic5 to logic--><g id="link_logic5_logic"><path d="M670.8119,96.2593 C655.2189,103.3823 637.1959,111.3513 620.5939,118.0493 C562.8819,141.3312 495.5539,164.9671 449.6919,180.549 " fill="none" id="logic5-backto-logic" style="stroke:#181818;stroke-width:1.0;"/><polygon fill="#181818" points="675.5679,94.0773,665.7197,94.1936,671.0231,96.1618,669.0549,101.4652,675.5679,94.0773" style="stroke:#181818;stroke-width:1.0;"/><text fill="#000000" font-family="sans-serif" font-size="13" lengthAdjust="spacing" textLength="45" x="596.5939" y="139.1162">Deploy</text></g><!--MD5=[ca314856c700cb8ab1cecfb5a303bf70]
@startuml
skinparam monochrome true

rectangle "ABAP Logic\nstored in git" as logic
logic -> logic: CI

cloud Steampunk {
  rectangle "ABAP Logic" as logic1
}

cloud "Embedded\nSteampunk" {
  rectangle "ABAP Logic" as logic2
}

cloud "ECC/S4" {
  rectangle "ABAP Logic" as logic3
}

cloud "Microservice" {
  rectangle "ABAP Logic" as logic4
}

cloud "Browser" {
  rectangle "ABAP Logic" as logic5
}

logic -up-> logic1: Deploy
logic -up-> logic2: Deploy
logic -up-> logic3: Deploy
logic -up-> logic4: Deploy
logic -up-> logic5: Deploy
@enduml

PlantUML version 1.2022.13beta7(Unknown compile time)
(GPL source distribution)
Java Runtime: Java(TM) SE Runtime Environment
JVM: Java HotSpot(TM) 64-Bit Server VM
Default Encoding: UTF-8
Language: en
Country: US
--></g></svg>