<svg height="27.318" viewBox="0 0 170 27.318" width="170" xmlns="http://www.w3.org/2000/svg"><defs><linearGradient gradientUnits="objectBoundingBox" id="a" x1=".5" x2=".5" y2="1.03"><stop offset="0" stop-color="#24b0ff"></stop><stop offset=".01" stop-color="#23aefe"></stop><stop offset=".672" stop-color="#002ea6"></stop></linearGradient><style>.a{fill:url(#a)}</style></defs><path class="a" d="M6.815 18.033a3.945 3.945 0 001.325 2.736 5 5 0 003.218.88 4.625 4.625 0 002.7-.635 2.15 2.15 0 00.9-1.857 1.991 1.991 0 00-.615-1.515 4.212 4.212 0 00-2.177-.929L8.8 16.078a12.193 12.193 0 01-6.2-2.688A6.956 6.956 0 01.568 8.161a7.215 7.215 0 012.7-6.109A11.979 11.979 0 0110.7 0a14.556 14.556 0 014.685.635 9.082 9.082 0 013.171 1.759 7.529 7.529 0 011.893 2.541 9.552 9.552 0 01.8 3.03l-6.579.684A3.968 3.968 0 0013.441 6.3a4.369 4.369 0 00-2.792-.782 4.529 4.529 0 00-2.556.586 1.855 1.855 0 00-.852 1.613 1.929 1.929 0 00.659 1.47 5.3 5.3 0 002.13.831l3.408.684c2.982.586 5.064 1.564 6.295 2.932a7.422 7.422 0 011.893 5.131 9.463 9.463 0 01-.615 3.519 7.183 7.183 0 01-1.94 2.688 8.966 8.966 0 01-3.313 1.71 16.887 16.887 0 01-4.733.635C4.023 27.269.379 24.19 0 18.082h6.815v-.049z"></path><path class="a" d="M35.874.586l8.756 26h-7l-1.467-4.985h-8.524l-1.42 4.985h-6.815l8.756-26zm-6.579 15.443h5.209l-2.558-8.943z"></path><path class="a" d="M43.967.586h9.418a15.6 15.6 0 014.922.684 7.94 7.94 0 013.124 1.857 6.934 6.934 0 011.609 2.737 12.576 12.576 0 01.473 3.372 11.475 11.475 0 01-.473 3.421 6.559 6.559 0 01-1.656 2.834 7.294 7.294 0 01-3.076 1.906 14.97 14.97 0 01-4.827.684h-2.935v8.454h-6.579V.586zm6.579 11.973h2.886a4.092 4.092 0 002.934-.831 3.238 3.238 0 00.853-2.442 3.05 3.05 0 00-.852-2.4 4.6 4.6 0 00-2.982-.782h-2.839v6.451z"></path><path d="M67.82 3.616V.391h2.319v3.225zm.142 22.969V7.721h2.13v18.864zm9.608 0h-2.13V7.722h2.13v2.639a12.546 12.546 0 012.65-2.248 5.848 5.848 0 013.266-.88 8.105 8.105 0 013.124.586 5.293 5.293 0 012.414 2.1 5.222 5.222 0 01.8 2.1 17.352 17.352 0 01.142 2.248v12.366H87.84V14.319a5.761 5.761 0 00-1.089-3.812 4.607 4.607 0 00-3.644-1.274 5.16 5.16 0 00-1.8.293 5.472 5.472 0 00-1.467.835 5.036 5.036 0 00-1.087 1.172 7.456 7.456 0 00-.713 1.369 7.8 7.8 0 00-.379 1.759c-.047.538-.047 1.173-.047 1.808v10.116zm18.741-5.913a5.535 5.535 0 001.8 3.421 5.777 5.777 0 003.69 1.026 6.411 6.411 0 002.035-.293 3.434 3.434 0 001.372-.782 3.2 3.2 0 00.852-1.124 2.989 2.989 0 00.284-1.319 2.433 2.433 0 00-.852-2.052 7.082 7.082 0 00-2.177-1.075 20.634 20.634 0 00-2.84-.635 13.662 13.662 0 01-2.84-.831 5.483 5.483 0 01-2.176-1.565 4.422 4.422 0 01-.852-2.883 5.006 5.006 0 011.656-3.861 6.77 6.77 0 014.733-1.515 7.8 7.8 0 014.827 1.368 6.3 6.3 0 012.224 4.594h-2.13a4.042 4.042 0 00-1.609-3.079 5.9 5.9 0 00-3.312-.883 4.748 4.748 0 00-3.076.88 2.869 2.869 0 00-1.039 2.349 2.362 2.362 0 00.85 1.955 6.139 6.139 0 002.177 1.075 20.19 20.19 0 002.84.733 13.864 13.864 0 012.84.929 6.121 6.121 0 012.177 1.613 4.279 4.279 0 01.852 2.834 4.955 4.955 0 01-.568 2.395 4.846 4.846 0 01-1.562 1.71 6.626 6.626 0 01-2.367 1.027 11.39 11.39 0 01-2.982.342 7.64 7.64 0 01-2.887-.489 6.01 6.01 0 01-2.13-1.368 6.711 6.711 0 01-1.372-2.054 7.35 7.35 0 01-.568-2.492h2.13zm16.612-17.056V.391h2.319v3.225zm.142 22.969V7.721h2.13v18.864zM134.694.342h2.134v26.243h-2.13v-3.323h-.095a5.842 5.842 0 01-1.183 1.662 5.516 5.516 0 01-1.609 1.173 11.621 11.621 0 01-1.8.733 7.925 7.925 0 01-1.8.244 8.219 8.219 0 01-3.783-.783 6.828 6.828 0 01-2.556-2.1 9.258 9.258 0 01-1.471-3.177 16.969 16.969 0 01-.473-3.91 14.492 14.492 0 01.473-3.812 9.322 9.322 0 011.515-3.176 7.076 7.076 0 012.556-2.2 7.692 7.692 0 013.6-.831 8.41 8.41 0 013.739.88 6.424 6.424 0 012.792 2.639V.342zm0 16.762a10.4 10.4 0 00-.426-3.03 7.581 7.581 0 00-1.23-2.492 6 6 0 00-1.94-1.71 5.035 5.035 0 00-2.6-.635 5.707 5.707 0 00-2.84.684 5.641 5.641 0 00-1.988 1.857 7.868 7.868 0 00-1.142 2.736 12.6 12.6 0 00-.281 3.328 9.5 9.5 0 00.473 3.176 6.724 6.724 0 001.325 2.3 5.186 5.186 0 001.988 1.417 5.843 5.843 0 002.461.489 5.212 5.212 0 002.65-.635 5.475 5.475 0 001.94-1.71 8.3 8.3 0 001.183-2.541 12.04 12.04 0 00.427-3.234zm8.755.587a11.149 11.149 0 00.378 2.883 6.694 6.694 0 001.136 2.346 5.29 5.29 0 001.94 1.613 5.948 5.948 0 002.7.586 5.831 5.831 0 003.55-1.124 5.346 5.346 0 001.988-3.225h2.366a11.492 11.492 0 01-1.041 2.492 7.23 7.23 0 01-1.609 2 5.877 5.877 0 01-2.274 1.322 9.408 9.408 0 01-3.029.489 8.354 8.354 0 01-3.786-.782 6.983 6.983 0 01-2.6-2.1 9.523 9.523 0 01-1.518-3.128 14.355 14.355 0 01-.473-3.861 13.215 13.215 0 01.568-3.91 9.542 9.542 0 011.656-3.176 8.273 8.273 0 012.651-2.15 7.616 7.616 0 013.549-.782 7.1 7.1 0 015.916 2.688q2.13 2.712 2.13 7.77h-14.198zm11.928-1.857a8.983 8.983 0 00-.379-2.59 5.842 5.842 0 00-1.089-2.1 5.227 5.227 0 00-1.8-1.417 5.771 5.771 0 00-2.508-.543 5.927 5.927 0 00-2.508.538 5.4 5.4 0 00-1.846 1.469 7.586 7.586 0 00-1.231 2.1 11.045 11.045 0 00-.615 2.543zm8.613 10.75h-2.13V7.722h2.13v3.518h.047a6.3 6.3 0 012.272-3.176 6.924 6.924 0 013.691-.88V9.53a6.165 6.165 0 00-2.982.586 5.116 5.116 0 00-1.845 1.662 6.465 6.465 0 00-.947 2.492 15.653 15.653 0 00-.284 3.03v9.284z" fill="#222"></path></svg>